<?xml version="1.0" encoding="UTF-8" standalone="no"?>
<!-- Created with Inkscape (http://www.inkscape.org/) -->

<svg
   width="200mm"
   height="100mm"
   viewBox="0 0 200 100"
   version="1.1"
   id="svg1"
   inkscape:version="1.3.2 (091e20e, 2023-11-25)"
   sodipodi:docname="LOGOCAF.svg"
   xmlns:inkscape="http://www.inkscape.org/namespaces/inkscape"
   xmlns:sodipodi="http://sodipodi.sourceforge.net/DTD/sodipodi-0.dtd"
   xmlns:xlink="http://www.w3.org/1999/xlink"
   xmlns="http://www.w3.org/2000/svg"
   xmlns:svg="http://www.w3.org/2000/svg">
  <sodipodi:namedview
     id="namedview1"
     pagecolor="#ffffff"
     bordercolor="#000000"
     borderopacity="0.25"
     inkscape:showpageshadow="2"
     inkscape:pageopacity="0.0"
     inkscape:pagecheckerboard="0"
     inkscape:deskcolor="#d1d1d1"
     inkscape:document-units="mm"
     inkscape:zoom="1.2432572"
     inkscape:cx="413.43014"
     inkscape:cy="184.59575"
     inkscape:window-width="1920"
     inkscape:window-height="1080"
     inkscape:window-x="1440"
     inkscape:window-y="0"
     inkscape:window-maximized="0"
     inkscape:current-layer="layer1" />
  <defs
     id="defs1" />
  <g
     inkscape:label="Capa 1"
     inkscape:groupmode="layer"
     id="layer1">
    <text
       xml:space="preserve"
       style="font-size:14.6263px;fill:#000000;fill-opacity:1;stroke:#ffffff;stroke-width:1.22077"
       x="32.43272"
       y="29.899231"
       id="text1"
       transform="scale(1.375962,0.72676425)"><tspan
         sodipodi:role="line"
         id="tspan1"
         style="font-style:normal;font-variant:normal;font-weight:normal;font-stretch:normal;font-family:'.Noto Nastaliq Urdu UI';-inkscape-font-specification:'.Noto Nastaliq Urdu UI';fill:#000000;fill-opacity:1;stroke:#000000;stroke-width:1.22077;stroke-opacity:1"
         x="32.43272"
         y="29.899231">CAFETERÍA</tspan></text>
    <rect
       style="fill:#c8beb7;fill-opacity:1;stroke:#8f7e7e;stroke-width:0.276715;stroke-opacity:1"
       id="rect1"
       width="174.07066"
       height="59.150753"
       x="12.774734"
       y="30.438351" />
    <path
       sodipodi:type="spiral"
       style="fill:none;fill-rule:evenodd;stroke:#000000;stroke-width:0.264583"
       id="path2"
       sodipodi:cx="174.72081"
       sodipodi:cy="9.3638439"
       sodipodi:expansion="1"
       sodipodi:revolution="3"
       sodipodi:radius="12.277025"
       sodipodi:argument="-17.866762"
       sodipodi:t0="0"
       d="m 174.72081,9.3638439 c 0.34145,0.512169 -0.52194,0.7129481 -0.85126,0.5675057 -0.89244,-0.394141 -0.80333,-1.6203961 -0.28375,-2.2700228 0.9294,-1.1620297 2.7001,-0.9657967 3.68879,10e-8 1.45093,1.4173457 1.13631,3.7956291 -0.28376,5.1075511 -1.89273,1.748586 -4.89692,1.310459 -6.52631,-0.567506 -2.05043,-2.3632272 -1.48652,-6.0010007 0.85126,-7.9450794 2.83136,-2.3545399 7.10665,-1.6636921 9.36384,1.1350117 2.66002,3.2981756 1.84157,8.2132977 -1.41876,10.7826077 -3.76419,2.966371 -9.3206,2.019913 -12.20138,-1.702517 -3.27332,-4.229662 -2.19858,-10.4283542 1.98627,-13.62013667 4.69478,-3.58069753 11.53645,-2.37749293 15.0389,2.27002337 3.88839,5.1596239 2.55658,12.6447963 -2.55377,16.4576653"
       transform="translate(8.0869562,7.022883)" />
    <path
       sodipodi:type="spiral"
       style="fill:none;fill-rule:evenodd;stroke:#000000;stroke-width:0.264583"
       id="path3"
       sodipodi:cx="10.215102"
       sodipodi:cy="11.704804"
       sodipodi:expansion="1"
       sodipodi:revolution="3"
       sodipodi:radius="13.461262"
       sodipodi:argument="-18.164938"
       sodipodi:t0="0"
       d="M 10.215102,11.704804 C 10.737941,12.131612 9.8977239,12.620153 9.5057194,12.573797 8.4434114,12.448176 8.141814,11.134261 8.4771171,10.286039 9.0768956,8.768768 10.995937,8.4040664 12.343251,9.0978268 14.320487,10.115948 14.756824,12.709915 13.691072,14.542336 12.270593,16.984664 8.9808386,17.493168 6.6681882,16.049767 3.7579537,14.233395 3.177193,10.239084 5.0011469,7.4485076 7.2101996,4.0687456 11.913573,3.4156719 15.180782,5.6218566 19.031075,8.221769 19.756511,13.636831 17.167043,17.379867 14.177399,21.70135 8.0489826,22.499191 3.830657,19.525737 -0.9624727,16.14711 -1.8327541,9.3042135 1.5251768,4.6109764 5.2922677,-0.65412634 12.85044,-1.5968783 18.018313,2.1458865 c 5.737318,4.1551783 6.752566,12.4292115 2.6247,18.0715115"
       transform="translate(6.1716245,5.1075513)" />
    <circle
       id="path11"
       style="fill:#c8beb7;stroke:#8f7e7e;stroke-width:0.264583"
       cx="153.65216"
       cy="-35.327229"
       r="0.028391343" />
    <path
       style="fill:#000000;fill-opacity:1;stroke:#000000;stroke-width:0.264999;stroke-opacity:1"
       d="m 116.83523,48.947366 c 0,1.135012 0,1.135012 0,0 z"
       id="path15" />
    <path
       style="fill:#000000;fill-opacity:1;stroke:#000000;stroke-width:0.21315;stroke-opacity:1"
       d="m 91.723107,62.139609 c -0.409668,-0.0941 -1.349584,-0.27107 -2.088705,-0.39327 -0.739119,-0.12221 -1.984084,-0.50838 -2.76659,-0.85816 -0.782505,-0.34978 -1.963451,-0.78517 -2.624322,-0.96754 -2.264683,-0.62495 -3.971759,-2.06744 -6.568723,-5.55063 -1.247593,-1.67334 -1.290339,-1.74417 -2.630535,-4.35857 -2.163758,-4.22097 -3.232518,-8.50745 -3.306326,-13.26068 l -0.04562,-2.937734 0.704771,0.342 0.704771,0.341998 -0.521666,-0.451747 -0.521663,-0.451747 4.565142,0.09356 c 2.510829,0.05146 5.331274,0.206973 6.267659,0.345593 2.582103,0.382252 27.77231,0.08557 27.77231,-0.327086 0,-0.363315 -0.006,-0.363487 0.92485,0.02553 0.52393,0.218913 1.5088,0.31922 3.13428,0.31922 2.97521,0 4.39236,0.353819 7.00724,1.749493 1.11195,0.5935 2.50784,1.31475 3.10197,1.60279 1.58437,0.76811 1.83479,1.28906 1.79819,3.74092 -0.0247,1.6544 -0.37477,2.36801 -1.96378,4.00298 -1.24324,1.27921 -3.95569,2.2797 -8.88142,3.27592 -0.87029,0.17602 -1.62027,0.35796 -1.66662,0.40432 -0.0464,0.0464 -0.42505,-0.14696 -0.84153,-0.42959 -0.41648,-0.28264 -0.87728,-0.51388 -1.02399,-0.51388 -0.30175,0 -0.27303,-0.0627 -1.38768,3.02712 -0.45284,1.25526 -0.98285,2.59599 -1.17779,2.97941 -0.41556,0.81734 -2.40437,3.33293 -3.50572,4.43428 -1.03053,1.03054 -3.06646,2.10939 -4.24339,2.2486 -0.52672,0.0623 -1.1492,0.19177 -1.3833,0.28771 -2.801973,1.14832 -6.849364,1.73455 -8.831813,1.2792 z m 2.662034,-2.84254 c 1.171501,-0.2729 2.435656,-0.65425 2.809226,-0.84743 0.37358,-0.19318 1.04581,-0.35124 1.49386,-0.35124 1.01211,0 3.568993,-1.2054 4.345213,-2.04849 0.99035,-1.07564 2.7629,-3.35869 3.08235,-3.97005 0.17007,-0.32548 0.93744,-2.33657 1.70528,-4.46911 1.02405,-2.84412 1.53106,-4.64293 1.90264,-6.75034 0.73994,-4.1965 0.58813,-4.50434 -0.2278,-0.46197 -0.99682,4.93846 -3.08887,10.69891 -4.65054,12.80522 -2.22961,3.0072 -3.61121,4.00735 -6.324013,4.578 -0.82828,0.17423 -1.66724,0.40061 -1.86435,0.50305 -1.25366,0.65156 -6.170552,1.38856 -7.295798,1.09358 -0.398153,-0.10437 -1.397074,-0.29631 -2.219828,-0.42654 -0.988332,-0.15643 -1.996324,-0.50761 -2.970689,-1.03499 -1.855835,-1.00448 -3.144731,-2.62849 -5.097983,-6.42348 -2.274046,-4.41826 -3.29764,-8.1615 -3.620445,-13.23985 l -0.118367,-1.86213 1.544148,0.005 c 2.075543,0.007 8.518925,0.36517 9.843919,0.54706 0.585239,0.0803 1.002543,0.079 0.92734,-0.003 -0.335573,-0.36563 -4.632121,-0.74924 -8.461832,-0.75549 l -4.129461,-0.007 0.140827,2.78253 c 0.152736,3.01778 0.631159,5.57594 1.534245,8.20374 0.915289,2.66331 2.960455,6.6236 4.462383,8.64103 1.182447,1.5883 1.559483,1.93866 2.603341,2.41912 1.880788,0.86569 2.792111,1.14904 3.747969,1.16534 0.482737,0.008 1.069239,0.0973 1.303334,0.19785 0.803686,0.34536 3.386077,0.20957 5.535031,-0.29103 z m 21.444269,-14.05802 c 3.39474,-0.855 4.68255,-1.3827 5.64859,-2.3146 1.2238,-1.18055 1.54329,-1.8874 1.55521,-3.44083 0.0195,-2.53257 -0.5689,-2.83232 -5.67983,-2.89385 l -2.96551,-0.0357 -0.15434,0.71667 c -0.21514,0.99896 -1.44177,8.21297 -1.44177,8.47926 0,0.27875 -0.29457,0.3283 3.03765,-0.51095 z m -19.596553,-8.36845 c -1.557796,-0.0364 -4.047727,-0.0363 -5.533179,2.2e-4 -1.485456,0.0365 -0.210895,0.0663 2.832354,0.0662 3.043255,-1.2e-4 4.258625,-0.03 2.700825,-0.0664 z m 12.302613,-0.0418 c 1.39013,-0.12199 0.725,-0.16146 -2.873,-0.17048 -2.57506,-0.006 -4.92134,0.0649 -5.21396,0.15865 -0.678393,0.21726 5.64067,0.2265 8.08696,0.0118 z"
       id="path18" />
    <path
       style="fill:#000000;fill-opacity:1;stroke:#000000;stroke-width:0.21315;stroke-opacity:1"
       d="m 32.87986,87.463863 c -1.053434,-0.206182 -2.938653,-0.768694 -4.189378,-1.250034 -1.250725,-0.481338 -2.36392,-0.87516 -2.473767,-0.87516 -0.388366,0 -2.130155,-1.082926 -3.064219,-1.905124 -1.587032,-1.396961 -4.165267,-5.031542 -5.600346,-7.8949 -2.22278,-4.435027 -3.082721,-7.780154 -3.26903,-12.716335 -0.122163,-3.236711 -0.105944,-3.46289 0.241771,-3.371678 0.2119,0.05559 0.316386,0.0066 0.242157,-0.113482 -0.152556,-0.246838 7.302884,-0.112625 12.579631,0.226459 1.935511,0.124378 7.17069,0.172972 12.130434,0.112596 11.964162,-0.145639 13.535006,-0.203819 13.723162,-0.508259 0.120189,-0.194477 0.393803,-0.174871 1.152014,0.08255 0.652915,0.221671 1.743832,0.337604 3.176794,0.337604 2.917984,0 4.082285,0.339836 7.861403,2.294585 3.760515,1.945127 3.888669,2.097104 3.848071,4.563317 -0.03148,1.91258 -0.520597,2.962814 -2.003949,4.302937 -1.212636,1.095541 -2.738697,1.727017 -6.258338,2.589662 -1.641356,0.402286 -3.298092,0.81665 -3.681634,0.920808 -0.573371,0.155708 -0.868569,0.09368 -1.660396,-0.348877 -0.529674,-0.296042 -0.995524,-0.50334 -1.035224,-0.460663 -0.0397,0.04268 -0.570172,1.418323 -1.17883,3.056996 -0.945351,2.545146 -1.318321,3.258568 -2.558923,4.894736 -0.798753,1.053433 -1.723737,2.171708 -2.055514,2.485056 -0.919879,0.868776 -3.202289,2.077419 -4.190185,2.218899 -0.485187,0.06949 -1.36099,0.297979 -1.946232,0.507757 -1.732587,0.621048 -5.205003,1.281141 -6.587622,1.252281 -0.707586,-0.01476 -2.148417,-0.195546 -3.20185,-0.401728 z m 3.511441,-2.557454 c 2.224529,-0.5279 3.893886,-1.06516 3.751638,-1.207408 -0.05863,-0.05863 -0.711261,0.09027 -1.450287,0.330883 -1.837073,0.59812 -3.796001,0.924113 -5.756283,0.957924 -0.905303,0.01561 -1.479902,0.09422 -1.276887,0.174667 0.724054,0.286935 2.951644,0.166389 4.731819,-0.256066 z m -6.384438,-0.249333 c -3.766307,-0.80563 -5.431446,-2.176232 -7.853312,-6.464189 -1.940645,-3.435948 -3.124298,-6.74615 -3.875088,-10.837055 l -0.390569,-2.128147 0.117348,1.581351 c 0.329345,4.43811 3.091246,11.180207 6.103918,14.900317 0.611024,0.754504 1.436439,1.561923 1.834259,1.794261 1.218488,0.711637 3.27303,1.388023 4.169852,1.372778 l 0.851257,-0.01447 z m 13.929146,-2.006338 c 1.248232,-0.694788 1.732179,-1.14763 3.096093,-2.8971 1.6755,-2.149136 1.692685,-2.185316 3.613697,-7.609478 0.899936,-2.541039 1.875894,-6.498896 1.65662,-6.71817 -0.04396,-0.04396 -0.298143,0.88768 -0.564848,2.070309 -0.535668,2.375252 -1.710206,5.912231 -2.88617,8.69134 -1.018638,2.407301 -3.240874,5.19624 -4.831784,6.063956 -0.625607,0.341223 -1.712069,0.792954 -2.414357,1.003848 l -1.276887,0.383445 1.064072,-0.08232 c 0.728572,-0.05636 1.530559,-0.341971 2.543564,-0.90583 z M 58.31121,70.758186 c 4.082793,-0.991452 5.526913,-1.748875 6.619634,-3.471921 0.490627,-0.773636 0.615471,-1.212099 0.613156,-2.153449 -0.0016,-0.65011 -0.05563,-1.378297 -0.120073,-1.618194 -0.262591,-0.977548 -1.741168,-1.334188 -5.745313,-1.385803 l -2.735049,-0.03526 -0.690491,4.01443 c -0.379769,2.207935 -0.748318,4.333997 -0.818996,4.72458 -0.111596,0.616717 -0.07778,0.694238 0.257037,0.589198 0.212048,-0.06652 1.391089,-0.365138 2.620095,-0.663585 z M 18.023908,64.327273 c -0.05396,-0.207062 -0.101656,-0.08917 -0.105992,0.26197 -0.0043,0.351141 0.03981,0.520557 0.09811,0.376475 0.05829,-0.144084 0.06184,-0.431382 0.0079,-0.638445 z m -0.212815,-1.276887 c -0.05396,-0.207063 -0.101656,-0.08918 -0.105992,0.261967 -0.0043,0.351144 0.03981,0.52056 0.09811,0.376476 0.0583,-0.144082 0.06184,-0.431382 0.0079,-0.638443 z M 49.78089,62.22608 c 0.04877,-0.04631 -1.082141,-0.08421 -2.513132,-0.08421 -1.819362,0 -2.558806,0.06958 -2.458818,0.231357 0.09811,0.158745 0.88686,0.185174 2.513132,0.08421 1.303578,-0.08093 2.410047,-0.185042 2.458818,-0.231357 z M 27.648433,62.042287 c -1.735682,-0.252569 -8.063044,-0.456769 -7.850706,-0.253363 0.05524,0.05292 1.725245,0.158732 3.711118,0.235144 1.985872,0.07641 3.653805,0.182059 3.706521,0.234775 0.05271,0.05272 0.582658,0.08535 1.177653,0.07253 0.961789,-0.02074 0.879183,-0.0528 -0.744586,-0.289084 z m 16.559374,0.183824 c -0.07072,-0.07071 -0.25427,-0.07828 -0.407897,-0.0168 -0.169768,0.06794 -0.119341,0.118364 0.128576,0.128577 0.224341,0.0092 0.350036,-0.04106 0.279321,-0.111777 z"
       id="path19" />
    <use
       x="0"
       y="0"
       xlink:href="#path18"
       id="use19"
       transform="translate(57.88558,25.324941)" />
    <path
       style="fill:#000000;fill-opacity:1;stroke:#000000;stroke-width:0.805605;stroke-opacity:1"
       d="m 124.67251,330.174 c -2.87551,-0.58433 -9.0287,-2.38967 -13.67376,-4.01187 -4.64505,-1.6222 -9.59502,-3.2914 -10.999914,-3.70935 -4.011679,-1.19343 -11.952038,-6.87182 -15.989596,-11.43463 -5.525417,-6.24424 -14.433992,-19.87108 -18.419548,-28.17513 -6.829036,-14.22854 -9.591589,-24.82598 -10.882321,-41.74571 -1.166097,-15.28593 -1.145111,-15.62729 0.99309,-16.1531 2.971258,-0.73067 21.776022,-0.74372 36.39633,-0.0252 15.712919,0.77215 90.538439,0.71777 101.346689,-0.0737 9.70669,-0.71077 9.70094,-0.71086 22.11931,0.34941 5.97222,0.5099 12.84932,1.48279 15.28244,2.16197 5.91401,1.65082 23.55357,10.49686 27.22631,13.65369 l 2.9364,2.52392 -0.0218,6.72597 c -0.0255,7.86751 -1.53947,11.51618 -6.72056,16.19699 -5.45728,4.93032 -11.23323,7.22829 -29.8282,11.86719 l -10.02741,2.50154 -3.86336,-1.8095 c -2.32743,-1.09011 -4.13032,-1.51204 -4.53486,-1.06129 -0.36933,0.41151 -2.04292,4.36772 -3.71911,8.79159 -4.33648,11.44508 -6.35937,15.20365 -12.26234,22.78376 -7.79602,10.01102 -12.49359,13.01886 -26.26287,16.81609 -18.62718,5.1369 -28.09118,6.06343 -39.09489,3.82737 z m 15.38039,-9.57128 c 9.26035,-2.3781 11.68235,-3.27719 10.61128,-3.93915 -0.4546,-0.28096 -3.28675,0.19272 -6.29367,1.05262 -6.0511,1.73047 -16.63243,3.3476 -21.90993,3.34847 -1.88014,3.2e-4 -3.41844,0.33236 -3.41844,0.73788 0,1.53172 13.34059,0.7699 21.01076,-1.19982 z m -26.29347,-0.38769 c 0.24343,-0.39387 -0.91155,-0.96166 -2.56663,-1.26173 -8.45713,-1.53334 -17.582128,-8.42112 -23.436036,-17.69013 -7.408474,-11.73049 -13.661667,-26.52463 -16.505133,-39.04873 -0.753294,-3.31789 -1.704229,-6.65164 -2.113188,-7.40833 -0.408959,-0.75669 -0.515183,-2.02352 -0.236053,-2.81519 0.407735,-1.15641 0.300261,-1.24751 -0.546683,-0.46336 -2.27491,2.10623 3.337584,22.81124 10.001129,36.89507 7.747176,16.37417 16.353134,26.81209 24.618844,29.85951 2.42195,0.89293 4.94648,1.82567 5.61006,2.07277 1.92067,0.7152 4.69152,0.64028 5.17369,-0.13988 z m 51.7562,-7.13283 c 4.85784,-2.4458 11.07052,-8.6938 16.03095,-16.1221 5.22451,-7.82378 15.2438,-36.9423 15.92329,-46.27701 0.22814,-3.13413 0.10012,-3.79587 -0.52175,-2.6968 -0.45324,0.80104 -0.63314,1.954 -0.39978,2.56213 0.23336,0.60813 0.15818,1.21956 -0.16706,1.35874 -0.32525,0.13918 -1.59793,4.03691 -2.82818,8.66163 -3.07478,11.55869 -8.83175,26.90875 -12.4117,33.0939 -1.63917,2.83204 -5.69497,7.89589 -9.01288,11.253 -5.0874,5.14749 -6.87392,6.40326 -11.40262,8.01495 -2.95353,1.05112 -5.17183,2.23185 -4.92956,2.62384 0.65685,1.06282 4.78205,0.0135 9.71929,-2.47228 z m 56.3426,-45.65988 c 11.66507,-3.08013 16.98003,-5.39073 20.57177,-8.94328 4.37774,-4.32996 5.30009,-6.63127 5.30334,-13.23213 0.003,-6.96328 -0.71441,-8.08728 -6.02953,-9.44122 -4.28734,-1.09213 -26.94402,-2.13213 -26.95016,-1.23709 -0.003,0.38527 -1.26948,7.93878 -2.81518,16.78558 -3.13724,17.9558 -3.22785,18.90471 -1.80496,18.9011 0.55298,-0.001 5.82911,-1.27624 11.72472,-2.83296 z m -38.46899,-31.75106 c -1.61358,-1.04278 -14.47809,-1.04278 -14.47809,0 0,0.48208 3.14211,0.79941 7.8423,0.79203 5.36047,-0.008 7.46048,-0.25907 6.63579,-0.79203 z m -76.8818,-0.6952 c 0.48012,-0.77685 -7.758941,-1.56615 -17.829089,-1.70802 -3.978418,-0.056 -6.635795,0.23074 -6.635795,0.71614 0,0.48717 3.082135,0.80962 7.738714,0.80962 4.256293,0 7.936143,0.19743 8.177445,0.43873 0.718292,0.7183 8.082845,0.49735 8.548725,-0.25647 z"
       id="path20"
       transform="scale(0.26458333)" />
    <path
       style="fill:#000000;fill-opacity:1;stroke:#000000;stroke-width:0.805605;stroke-opacity:1"
       d="m 123.64263,330.13794 c -9.07538,-2.03426 -26.455429,-8.42956 -30.905675,-11.3723 -11.497587,-7.60282 -26.183762,-29.72669 -32.734177,-49.31215 -3.435759,-10.27276 -5.183351,-20.43516 -5.822814,-33.86016 -0.437032,-9.17513 -0.349506,-10.18324 0.926648,-10.67295 0.775096,-0.29743 9.595947,-0.4639 19.601892,-0.36994 32.978176,0.3097 114.551806,0.26846 123.158836,-0.0623 8.46473,-0.32526 25.38858,0.94685 32.17355,2.41839 5.11775,1.10995 23.87045,10.50467 27.95078,14.00278 3.34343,2.86636 3.41844,3.0408 3.41844,7.9502 0,7.692 -1.72192,12.33501 -6.20596,16.7339 -5.14799,5.05022 -11.7676,7.96561 -27.1741,11.96792 l -12.86942,3.34322 -4.283,-1.45279 c -5.10059,-1.73012 -4.32745,-2.55533 -9.4723,10.11017 -6.6054,16.26107 -15.53623,27.65677 -25.54095,32.59015 -3.1607,1.55856 -10.81406,4.12876 -17.00747,5.71156 -13.57008,3.46799 -26.23864,4.28617 -35.21428,2.27427 z m 13.8993,-9.29591 c 5.82532,-1.2873 12.21358,-3.24782 11.83064,-3.63077 -0.19455,-0.19454 -3.56945,0.36254 -7.49977,1.23798 -3.93033,0.87543 -9.67972,1.83969 -12.77642,2.14279 -3.09671,0.3031 -6.17331,0.88717 -6.83688,1.29795 -1.46811,0.9088 9.98016,0.12376 15.28243,-1.04795 z m -24.13016,-0.69691 c 0.22119,-0.0576 -1.58857,-0.74841 -4.0217,-1.53506 -11.581304,-3.74432 -17.315109,-9.08155 -25.589797,-23.8199 -5.326115,-9.48653 -9.040097,-18.70736 -12.310976,-30.56487 -1.46438,-5.30863 -2.797558,-8.99029 -2.962618,-8.18146 -0.165059,0.80883 0.497948,4.42836 1.47335,8.04339 5.468102,20.26586 13.537822,36.46649 23.247678,46.67164 4.724019,4.96498 6.846123,6.34283 13.248913,8.60233 3.39319,1.19742 4.74167,1.35029 6.91515,0.78393 z m 51.86898,-7.34096 c 4.41515,-2.26545 11.07783,-8.90882 15.243,-15.19881 5.04889,-7.62453 12.10581,-26.02616 15.35694,-40.04475 1.52971,-6.59598 1.05394,-7.33976 -0.76494,-1.19583 -3.82158,12.90887 -9.82782,29.45726 -12.71764,35.03967 -4.64667,8.97622 -13.03451,17.74179 -20.32384,21.23909 -4.48846,2.15349 -5.06162,2.61169 -2.82606,2.25921 1.54238,-0.24318 4.25702,-1.18754 6.03254,-2.09858 z m 62.34757,-47.37762 c 9.21389,-2.83712 14.44,-5.99606 17.45406,-10.55016 1.94377,-2.93695 2.2518,-4.19627 2.2518,-9.20616 0,-6.60828 -1.16749,-8.64655 -5.47041,-9.55052 -3.57672,-0.75142 -24.74754,-1.98543 -25.97584,-1.51409 -0.55281,0.21214 -1.42373,2.98187 -1.93538,6.15496 -0.51166,3.1731 -1.04805,6.49317 -1.19201,7.37795 -0.14395,0.88477 -0.81047,4.68527 -1.48117,8.44555 -1.69679,9.51319 -2.08966,12.66294 -1.63603,13.11656 0.52813,0.52814 8.68294,-1.40983 17.98498,-4.27409 z m -45.84775,-29.89806 c 0,-0.36385 -2.53367,-0.66155 -5.63038,-0.66155 -3.25644,0 -5.63037,0.3427 -5.63037,0.8128 0,0.4845 2.27415,0.75171 5.63037,0.66156 3.09671,-0.0832 5.63038,-0.44895 5.63038,-0.81281 z m -77.21653,-0.5892 c -1.85029,-1.04754 -21.207234,-2.00381 -20.597703,-1.01757 0.277335,0.44874 3.631647,0.83884 7.454027,0.8669 3.82238,0.0281 7.1369,0.23814 7.365601,0.46684 0.2287,0.2287 1.893795,0.40481 3.700205,0.39136 2.22094,-0.0165 2.89373,-0.24563 2.07787,-0.70753 z"
       id="path21"
       transform="scale(0.26458333)" />
    <path
       style="fill:#000000;fill-opacity:1;stroke:#000000;stroke-width:0.805605;stroke-opacity:1"
       d="M 121.05299,329.80809 C 111.63414,327.31399 97.299177,321.88665 93.224644,319.27203 81.263977,311.59689 66.12691,288.8638 59.525126,268.66157 55.905641,257.58551 54.414989,248.0832 54.349852,235.67126 l -0.05698,-10.85857 11.260743,-0.40217 c 6.193409,-0.22119 18.318816,-0.16568 26.945349,0.12336 20.218496,0.67743 82.118036,0.65103 97.727156,-0.0417 11.22909,-0.49834 29.62723,0.44251 38.95933,1.9923 4.47009,0.74236 26.09805,11.50539 29.61055,14.73552 2.45822,2.2606 2.61411,2.73075 2.61411,7.8839 0,15.99218 -7.84199,22.42193 -35.68599,29.25941 l -10.92588,2.68301 -4.08077,-1.46743 c -2.24442,-0.80708 -4.20099,-1.33424 -4.34792,-1.17147 -0.14694,0.16278 -2.1104,4.78033 -4.36326,10.26123 -6.12202,14.89409 -13.70939,25.57608 -22.44182,31.5951 -4.39713,3.03082 -20.64427,8.36759 -30.18473,9.91491 -10.06219,1.63195 -21.32051,1.48466 -28.32675,-0.37058 z m 17.29328,-9.41104 c 3.3179,-0.68736 6.57547,-1.57725 7.23905,-1.97753 1.34212,-0.8096 0.66093,-0.70357 -8.29438,1.29119 -3.01356,0.67125 -7.06417,1.22047 -9.00135,1.22047 -1.93717,0 -3.71228,0.30765 -3.94467,0.68366 -0.57582,0.93171 6.666,0.30184 14.00135,-1.21779 z m -31.56374,-2.514 c -2.9825,-1.19904 -7.046948,-3.34367 -9.032099,-4.76582 -9.088655,-6.5111 -19.525796,-25.66073 -26.647621,-48.89194 -1.110527,-3.62251 -1.764421,-5.02861 -1.496202,-3.21735 1.463821,9.88502 10.52177,31.49186 17.53009,41.81629 6.406232,9.43744 10.690818,13.07769 18.992042,16.13592 5.47467,2.01691 6.03865,1.08777 0.65379,-1.0771 z m 61.13266,-7.0668 c 5.99419,-3.9423 13.96509,-14.32517 17.52452,-22.82738 3.4447,-8.22815 8.88741,-24.25842 9.57039,-28.18744 0.26914,-1.54835 -1.10515,1.89019 -3.054,7.64122 -5.11633,15.09823 -8.76455,23.74792 -12.19793,28.92054 -4.2525,6.40666 -11.72799,13.6236 -16.68384,16.1068 -3.06233,1.53444 -3.55653,1.97853 -1.8044,1.62147 1.32716,-0.27045 4.31752,-1.7443 6.64526,-3.27521 z m 56.34625,-44.64089 c 9.705,-2.77541 14.01607,-4.78841 17.71208,-8.2704 4.06351,-3.82824 4.95849,-6.16117 4.95849,-12.92531 0,-5.48026 -0.18052,-6.17223 -1.905,-7.30215 -2.27365,-1.48975 -12.69405,-2.79601 -22.37205,-2.80447 -5.95032,-0.005 -7.04898,0.20219 -7.42449,1.40149 -0.73782,2.35639 -5.29627,29.42795 -5.29719,31.45873 -7.9e-4,1.75499 0.22829,1.85808 3.01541,1.35699 1.65895,-0.29825 6.74968,-1.60995 11.31275,-2.91488 z m -45.69823,-30.5041 c 1.5821,-0.50667 1.11048,-0.66108 -2.21193,-0.72416 -2.33241,-0.0443 -4.22278,0.2799 -4.22278,0.72416 0,0.93347 3.51996,0.93347 6.43471,0 z m -75.60785,-0.80433 c -0.66357,-0.42884 -3.740171,-0.72278 -6.836875,-0.6532 l -5.630372,0.12651 5.228203,0.52669 c 8.730924,0.87954 8.600044,0.87954 7.239044,0 z"
       id="path22"
       transform="scale(0.26458333)" />
    <path
       style="fill:#000000;fill-opacity:1;stroke:#000000;stroke-width:0.805605;stroke-opacity:1"
       d="m 350.28954,234.73108 c -8.15218,-0.77305 -16.04585,-2.80208 -27.74969,-7.13296 -11.32271,-4.18985 -13.46957,-5.52711 -20.13178,-12.53996 -7.59346,-7.99311 -12.8411,-15.53789 -18.03583,-25.93097 -8.41341,-16.83266 -11.91258,-30.71184 -12.87594,-51.07138 -0.3885,-8.2105 -0.28564,-9.47673 0.73797,-9.08394 0.65417,0.25103 1.38422,0.14119 1.62234,-0.24409 0.23812,-0.38529 -0.0218,-0.85778 -0.5775,-1.04999 -1.8097,-0.62592 25.24521,0.14182 36.39132,1.03268 11.1652,0.89239 89.34149,0.61957 101.74886,-0.35508 8.41408,-0.66096 7.88395,-0.66973 20.91281,0.34608 6.37128,0.49674 13.53085,1.56544 16.48894,2.46127 7.14317,2.16326 25.70805,11.92066 27.56554,14.48801 1.65352,2.28543 2.21626,9.43147 1.14754,14.57187 -0.70166,3.37486 -4.90774,8.78177 -9.40313,12.08772 -4.20429,3.09187 -12.06717,5.90541 -25.45485,9.10841 l -11.39518,2.72629 -3.15074,-1.72583 c -1.73291,-0.94921 -3.70032,-1.51495 -4.372,-1.2572 -0.67275,0.25816 -3.11484,5.51608 -5.43728,11.70664 -3.61147,9.62654 -4.95809,12.17644 -9.39109,17.7826 -2.84629,3.59953 -6.66603,7.99153 -8.48831,9.76 -3.78435,3.67258 -11.52274,7.59233 -16.62466,8.42095 -1.90975,0.31017 -5.34829,1.22293 -7.64122,2.02837 -2.29294,0.80544 -7.24557,2.06126 -11.00585,2.79072 -3.76029,0.72945 -7.19883,1.40811 -7.64122,1.50813 -0.44239,0.10001 -3.69996,-0.0927 -7.23905,-0.42834 z m 10.85857,-11.4845 c 3.76029,-1.1699 9.28916,-2.63706 12.28638,-3.26036 8.82194,-1.83462 14.44563,-5.34903 20.44018,-12.77368 2.84556,-3.5244 6.02815,-7.88327 7.07243,-9.68637 2.10431,-3.63343 10.02498,-25.49071 11.97267,-33.03889 2.42861,-9.41198 3.77381,-18.97487 2.8681,-20.38903 -0.68131,-1.06378 -0.76073,-0.90113 -0.39904,0.81725 0.24836,1.17995 0.15561,2.26581 -0.2061,2.41302 -0.36172,0.1472 -1.66877,4.61108 -2.90455,9.91971 -6.89096,29.60193 -17.7631,50.26637 -29.91524,56.85921 -5.33888,2.89648 -24.93019,8.33706 -34.2421,9.50915 -6.86617,0.86425 -8.41474,0.79526 -15.756,-0.70201 -13.08484,-2.66868 -19.78948,-7.00346 -26.66471,-17.23965 -3.51493,-5.23321 -11.49972,-21.51121 -13.66808,-27.86411 -3.64009,-10.66478 -6.18858,-24.73158 -6.60335,-36.44828 -0.11797,-3.3327 -0.47598,-4.62495 -1.28129,-4.62495 -0.90441,0 -1.00698,1.11223 -0.53777,5.83146 0.31889,3.2073 0.54475,6.37438 0.50192,7.03796 -0.25485,3.94802 2.70852,19.85905 5.00353,26.86508 4.53874,13.85556 14.15173,31.58001 21.38166,39.42355 8.5517,9.2775 33.03718,12.83103 50.65136,7.35094 z m 78.48701,-52.34415 c 12.7477,-3.47719 17.95671,-5.9342 21.59685,-10.18688 4.95809,-5.79241 5.6452,-16.80555 1.25308,-20.08474 -2.22148,-1.65858 -4.43116,-1.96694 -19.81718,-2.76552 l -10.57705,-0.54899 -0.86146,4.3356 c -2.02764,10.20484 -4.9298,27.77211 -4.9298,29.84097 0,2.92055 0.55386,2.89603 13.33556,-0.59044 z m -109.44473,-31.7669 c 0.63563,-1.02847 -4.87389,-1.54846 -22.21352,-2.09651 -12.44671,-0.3934 -16.72145,-0.28499 -17.16664,0.43534 -0.44189,0.71501 1.01304,0.92958 5.71526,0.84287 6.86318,-0.12656 25.42516,0.78522 25.91592,1.273 0.56642,0.56299 7.36662,0.16397 7.74898,-0.4547 z m 77.60937,-0.0518 c -3.59386,-0.88353 -27.99263,-0.84147 -28.5431,0.0492 -0.22787,0.36871 6.73453,0.66419 15.47199,0.65664 10.545,-0.009 14.93978,-0.24644 13.07111,-0.70584 z m -131.10722,-9.2696 c 0,-0.6657 -1.56181,-1.04215 -1.91988,-0.46276 -0.23231,0.37587 0.10464,0.6834 0.74876,0.6834 0.64412,0 1.17112,-0.0993 1.17112,-0.22064 z"
       id="path23"
       transform="scale(0.26458333)" />
    <path
       style="fill:#000000;fill-opacity:1;stroke:#000000;stroke-width:0.805605;stroke-opacity:1"
       d="m 351.89822,235.10856 c -13.23409,-1.20227 -36.69073,-8.86366 -43.63773,-14.25293 -7.66062,-5.94285 -18.42411,-19.97163 -24.11744,-31.43385 -8.11371,-16.33511 -11.80754,-31.05165 -12.76941,-50.87442 -0.42906,-8.84214 -0.3409,-9.85315 0.85919,-9.85315 0.76279,0 1.10381,-0.37779 0.79381,-0.87939 -0.50419,-0.81578 20.17026,-0.51484 34.23078,0.49827 10.67094,0.76889 54.29198,0.87604 81.23821,0.19956 16.1471,-0.40537 30.26325,-0.75621 31.36922,-0.77964 3.97041,-0.0841 23.80227,1.8656 27.34751,2.68863 5.30901,1.23247 26.41545,11.97616 28.58828,14.55212 3.80139,4.50667 3.35012,14.67573 -0.92503,20.84477 -5.07791,7.32742 -12.04298,10.80197 -31.22011,15.57426 l -12.00243,2.98684 -3.50261,-1.7017 c -1.92644,-0.93594 -3.66655,-1.7017 -3.86692,-1.7017 -0.65753,0 -3.67502,6.45503 -6.52228,13.9525 -3.18402,8.38421 -6.0991,13.11232 -12.99662,21.07983 -6.09073,7.03556 -11.74033,10.44686 -22.14716,13.37276 -8.71064,2.44901 -25.89699,6.38102 -26.90161,6.15473 -0.33017,-0.0744 -2.04811,-0.26674 -3.81765,-0.42749 z m -1.98975,-9.93685 c 3.74868,-0.46613 9.7114,-1.70078 13.25049,-2.74367 3.53909,-1.0429 8.42545,-2.33987 10.85858,-2.88217 5.19739,-1.15839 10.80301,-3.82931 14.41429,-6.868 4.20335,-3.53688 12.13449,-14.5505 14.3265,-19.89457 6.53004,-15.92005 11.69464,-33.16877 12.56655,-41.96978 l 0.39842,-4.02169 -1.48173,4.82603 c -0.81495,2.65432 -2.78671,9.50648 -4.38167,15.22703 -5.4632,19.59448 -11.34219,31.882 -19.43755,40.62595 -6.53573,7.05938 -7.66152,7.61183 -26.86122,13.18136 -5.95014,1.72604 -17.93851,3.76238 -22.02359,3.74092 -5.00646,-0.0263 -17.26085,-2.95413 -21.94595,-5.24334 -8.53821,-4.17188 -17.091,-16.00293 -24.86275,-34.39253 -4.61482,-10.91965 -7.30933,-21.46554 -8.43004,-32.99392 -0.48085,-4.94626 -1.19092,-10.44101 -1.57795,-12.21055 -1.27317,-5.82114 -0.1622,14.77328 1.21493,22.52149 3.77908,21.26244 17.76563,48.90838 28.74583,56.81926 3.20283,2.30753 12.6528,5.41694 18.91104,6.22247 7.74179,0.99648 8.72294,0.99982 16.31582,0.0557 z m 89.26051,-54.31043 c 19.27863,-5.45731 25.67786,-10.98418 25.72117,-22.21484 0.0244,-6.33678 -1.89,-8.48417 -8.42789,-9.45343 -7.39199,-1.09587 -24.5319,-1.87714 -24.53575,-1.11839 -0.002,0.3706 -0.87431,5.56018 -1.93871,11.53239 -1.06442,5.97222 -2.16947,12.84932 -2.45567,15.28244 -0.28621,2.43313 -0.70399,5.05404 -0.9284,5.82426 -0.22441,0.77022 -0.21041,1.72012 0.0311,2.11089 0.48893,0.79111 5.67153,-0.0207 12.53415,-1.96332 z M 328.17022,139.21959 c 2.58441,-0.73901 -4.51622,-1.43251 -22.3204,-2.17997 -9.32704,-0.39157 -13.0705,-0.29449 -13.0705,0.33895 0,0.60293 3.80578,0.91822 11.864,0.98287 6.52519,0.0523 13.49278,0.38699 15.48352,0.74366 4.54313,0.81398 5.54724,0.82827 8.04338,0.11449 z m 73.99917,-0.069 c 0.82528,-0.53333 -1.20798,-0.77971 -6.43471,-0.77971 -4.20267,0 -8.18414,0.35087 -8.84772,0.77971 -0.82528,0.53333 1.20798,0.77971 6.43471,0.77971 4.20267,0 8.18414,-0.35087 8.84772,-0.77971 z"
       id="path24"
       transform="scale(0.26458333)" />
    <path
       style="fill:#000000;fill-opacity:1;stroke:#000000;stroke-width:0.805605;stroke-opacity:1"
       d="m 344.65917,234.52277 c -11.52899,-2.36715 -27.53073,-7.94558 -34.48878,-12.02327 -10.71157,-6.27739 -25.66172,-28.29878 -32.93699,-48.51575 -1.81149,-5.03389 -2.59122,-8.26493 -5.00918,-20.75721 -0.25689,-1.32716 -0.67515,-7.62416 -0.92948,-13.99334 -0.34266,-8.58103 -0.22433,-11.43318 0.45684,-11.01219 0.5056,0.31247 0.91927,0.14901 0.91927,-0.36326 0,-0.68874 3.71963,-0.80597 14.27701,-0.44998 29.17791,0.98389 96.93673,1.37413 115.22153,0.66359 10.39608,-0.40399 21.43563,-0.4699 24.53234,-0.14646 3.0967,0.32343 8.71155,0.81195 12.47744,1.0856 3.78815,0.27526 8.81887,1.24301 11.26074,2.16621 6.78123,2.56379 23.10141,11.1964 25.27351,13.36849 3.47074,3.47075 3.85159,12.56531 0.78458,18.73557 -4.38586,8.82357 -12.77179,13.54962 -32.6735,18.41379 -12.07121,2.95031 -12.62523,2.97965 -16.72961,0.88575 l -3.16229,-1.61328 -1.10548,2.21653 c -0.60801,1.21909 -2.42214,5.65508 -4.03138,9.85775 -3.87235,10.11291 -7.74238,16.48169 -14.4166,23.72495 -4.34222,4.71245 -6.87664,6.66123 -11.99418,9.22264 -3.56874,1.78621 -7.08012,3.25233 -7.80308,3.25803 -0.72295,0.006 -3.66714,0.75029 -6.54265,1.65461 -7.42353,2.33465 -20.36694,4.78364 -24.79255,4.69092 -2.06881,-0.0433 -5.93319,-0.5247 -8.58751,-1.06969 z m 5.38888,-9.67873 c 2.96387,-0.25852 9.11706,-1.54544 13.67376,-2.85981 4.55668,-1.31437 8.72374,-2.39201 9.26013,-2.39475 1.93278,-0.01 9.79328,-3.3248 12.95302,-5.46251 3.48934,-2.3607 11.05509,-11.17974 14.19732,-16.54912 4.12821,-7.0542 13.1193,-34.22747 14.40883,-43.54697 0.62634,-4.52657 0.11084,-3.0742 -3.14034,8.84772 -7.28134,26.70034 -16.82431,44.33349 -27.44062,50.70378 -3.79878,2.27944 -22.91829,8.56862 -29.24675,9.62043 -7.02909,1.16826 -16.33534,1.36942 -21.0802,0.45566 -18.24788,-3.51412 -25.54888,-10.05922 -36.3963,-32.62801 -6.96773,-14.49683 -9.83788,-24.66402 -11.69366,-41.42345 l -0.57892,-5.2282 -0.11096,4.42387 c -0.45504,18.14177 10.8438,47.88034 24.6939,64.99437 3.12145,3.85705 7.36927,6.58109 13.39476,8.58977 4.45586,1.48543 17.5927,3.55869 20.10847,3.17354 0.88477,-0.13546 4.03367,-0.4578 6.99756,-0.71632 z m 88.77855,-54.30151 c 14.04575,-3.76528 20.09341,-7.00373 23.30129,-12.47755 2.64456,-4.51261 3.353,-10.35543 1.72735,-14.24616 -1.64601,-3.93947 -4.29825,-4.65034 -19.51748,-5.23123 l -12.1245,-0.46277 -1.4171,8.3552 c -3.23962,19.10068 -4.20453,25.67244 -3.82513,26.05184 0.76191,0.7619 2.98255,0.38929 11.85557,-1.98933 z M 284.48105,142.21715 c -0.25677,-0.64165 -0.44736,-0.45105 -0.48596,0.48596 -0.0349,0.8479 0.15518,1.32297 0.42246,1.05569 0.26727,-0.26727 0.29585,-0.96102 0.0635,-1.54165 z m 112.05797,-3.06654 2.01085,-0.64399 h -2.01085 c -1.10596,0 -2.91573,0.2898 -4.02169,0.64399 l -2.01085,0.64399 h 2.01085 c 1.10596,0 2.91573,-0.2898 4.02169,-0.64399 z m -73.597,-0.80407 c -5.78143,-0.71887 -28.52261,-1.66225 -27.27954,-1.13164 0.9746,0.41601 21.83399,1.69017 28.08388,1.71545 l 4.0217,0.0163 z"
       id="path25"
       transform="scale(0.26458333)" />
    <path
       style="fill:#000000;fill-opacity:1;stroke:#000000;stroke-width:0.805605;stroke-opacity:1"
       d="m 341.81568,234.06998 c -7.94728,-1.71497 -26.22516,-8.1303 -30.97093,-10.87043 -8.35325,-4.82304 -21.37728,-21.67034 -28.56068,-36.94482 -7.34675,-15.62182 -10.37344,-28.28096 -11.01129,-46.05476 l -0.43863,-12.22223 2.23377,-0.56064 c 1.22857,-0.30835 9.33332,-0.30623 18.01055,0.005 28.04719,1.00507 78.67635,1.30758 104.25404,0.62292 32.03995,-0.85763 47.9106,0.20865 57.32043,3.85111 9.68676,3.74966 23.28814,11.72078 24.71817,14.48615 1.80417,3.48889 1.58058,12.10724 -0.4248,16.37349 -4.60339,9.79328 -15.70385,15.60129 -38.97138,20.39067 -6.43592,1.32477 -6.78852,1.31916 -10.06893,-0.16009 -3.33785,-1.50516 -3.41967,-1.50528 -4.51553,-0.007 -0.61385,0.83948 -2.23262,4.44219 -3.59726,8.00602 -5.11279,13.35223 -10.006,21.01602 -18.58846,29.11343 -5.63916,5.32045 -8.5177,6.73629 -20.93375,10.29648 -19.55715,5.60783 -26.44608,6.2661 -38.45532,3.67458 z m 10.08254,-9.58475 c 1.9342,-0.3829 -0.63211,-0.4815 -6.43471,-0.24722 -5.30864,0.21434 -9.80288,0.52181 -9.98721,0.68327 -0.64375,0.56391 13.23189,0.19547 16.42192,-0.43605 z m -22.54228,-1.58357 c -14.24825,-3.50569 -21.62526,-10.38238 -30.78224,-28.69453 -6.15904,-12.31684 -9.59318,-22.33295 -11.81074,-34.44746 -0.57676,-3.15084 -1.08781,-4.71816 -1.13567,-3.48295 -0.24826,6.40712 4.68569,22.77617 10.75753,35.68961 6.88934,14.65206 14.4,24.45008 21.54831,28.11082 4.03289,2.0653 11.65415,4.19392 15.06313,4.20715 1.10596,0.004 -0.53218,-0.6179 -3.64032,-1.38264 z m 35.78134,-1.3847 c 14.03625,-3.82145 16.00169,-4.51958 19.86298,-7.05539 5.36151,-3.52105 12.7117,-12.58893 16.43964,-20.28146 3.46012,-7.1399 10.78586,-28.6181 11.49928,-33.71452 0.4216,-3.01175 0.37204,-2.96035 -0.77539,0.80434 -9.42804,30.93299 -17.04497,45.29047 -27.58208,51.99069 -3.13415,1.99291 -15.41345,6.33604 -26.65095,9.42631 -1.54835,0.42579 -2.2869,0.80681 -1.64121,0.84671 0.6457,0.0399 4.62717,-0.86761 8.84773,-2.01668 z m 73.08553,-50.98946 c 17.04608,-4.48248 24.06456,-9.35715 25.84915,-17.95345 1.127,-5.42876 0.30288,-9.12744 -2.50002,-11.22011 -2.24632,-1.67712 -16.62723,-3.32421 -24.90542,-2.85249 l -4.33442,0.24699 -2.56929,14.88027 c -2.88034,16.68165 -3.10522,19.30641 -1.65349,19.299 0.55298,-0.003 5.10405,-1.08291 10.11349,-2.40021 z M 285.28539,151.86922 c -0.25677,-0.64165 -0.44736,-0.45106 -0.48596,0.48595 -0.0349,0.84791 0.15518,1.32297 0.42246,1.0557 0.26727,-0.26728 0.29585,-0.96102 0.0635,-1.54165 z m 29.82873,-14.09767 c -1.20864,-0.18353 -3.38035,-0.18722 -4.82603,-0.008 -1.44568,0.17902 -0.45679,0.32918 2.19753,0.33369 2.65432,0.005 3.83714,-0.14195 2.6285,-0.32548 z"
       id="path26"
       transform="scale(0.26458333)" />
    <path
       style="fill:#000000;fill-opacity:1;stroke:#000000;stroke-width:0.805605;stroke-opacity:1"
       d="m 340.23531,233.81303 c -9.07351,-2.19702 -24.73195,-7.86744 -29.62644,-10.72867 -14.18911,-8.2947 -32.07995,-38.10339 -37.12788,-61.86032 -1.998,-9.40312 -3.21694,-32.3438 -1.76621,-33.2404 1.44328,-0.892 157.21392,-0.2028 166.409,0.73626 4.51259,0.46086 10.23209,1.53545 12.71001,2.38797 5.93638,2.04242 21.28624,10.04688 24.64719,12.85272 2.5129,2.09786 2.67339,2.55221 2.96895,8.40535 0.76437,15.13675 -7.8601,22.80636 -32.67319,29.05578 -12.3595,3.11285 -14.29519,3.27825 -18.38196,1.57069 -1.58114,-0.66064 -3.15754,-1.02642 -3.50312,-0.81284 -0.34556,0.21357 -2.5172,5.09539 -4.82584,10.84849 -4.56775,11.38276 -9.13016,18.57592 -16.38537,25.83338 -6.32369,6.32565 -11.83188,8.97069 -26.69786,12.82032 -16.60584,4.30019 -24.77773,4.7874 -35.74728,2.13127 z m -10.67425,-10.6928 c -0.26727,-0.26728 -0.96102,-0.29585 -1.54165,-0.0635 -0.64165,0.25676 -0.45105,0.44736 0.48596,0.48595 0.8479,0.0349 1.32297,-0.15517 1.05569,-0.42245 z m -5.48811,-1.49601 c -4.99614,-1.8394 -8.03559,-3.67776 -11.76636,-7.11666 -4.81352,-4.43695 -7.69061,-8.70036 -13.66633,-20.2514 -2.74869,-5.31323 -5.0109,-9.38292 -5.02711,-9.04376 -0.0162,0.33916 1.9274,4.50161 4.31916,9.2499 5.067,10.05933 11.35199,19.27082 15.32998,22.46811 2.92177,2.34836 10.40947,5.81045 12.49492,5.77728 0.66358,-0.0106 -0.0943,-0.49812 -1.68426,-1.08347 z m 52.50288,-3.56003 c 8.92248,-3.06977 13.16469,-6.53487 20.48455,-16.73201 3.35285,-4.6708 8.02821,-14.48752 7.2639,-15.25183 -0.18966,-0.18966 -0.95676,1.20848 -1.70467,3.10698 -3.41549,8.66988 -11.52734,19.82252 -17.52326,24.092 -1.23342,0.87826 -5.2261,2.64908 -8.87263,3.93513 -3.64652,1.28606 -6.0533,2.34543 -5.34837,2.35416 0.70492,0.009 3.27013,-0.66826 5.70048,-1.50443 z m 29.59062,-35.88146 c 0,-0.44238 -0.35086,-0.26141 -0.7797,0.40217 -0.42884,0.66358 -0.7797,1.56847 -0.7797,2.01085 0,0.44239 0.35086,0.26141 0.7797,-0.40217 0.42884,-0.66358 0.7797,-1.56846 0.7797,-2.01085 z m 31.39385,-11.6596 c 12.18786,-3.16157 20.47332,-7.32678 23.6755,-11.90197 1.97299,-2.81894 2.47296,-4.44622 2.7224,-8.86073 0.51638,-9.13859 -2.04856,-10.42584 -21.54557,-10.81291 l -10.02794,-0.19908 -2.64567,16.08678 c -2.28708,13.9065 -2.67209,18.11554 -1.65494,18.09249 0.12448,-0.003 4.38878,-1.08488 9.47622,-2.40458 z m -149.05756,-1.7628 c -0.25677,-0.64165 -0.44736,-0.45105 -0.48595,0.48596 -0.0349,0.8479 0.15517,1.32297 0.42245,1.05569 0.26727,-0.26727 0.29585,-0.96102 0.0635,-1.54165 z m 122.25949,-1.60868 c -0.25676,-0.64164 -0.44735,-0.45105 -0.48595,0.48596 -0.0349,0.84791 0.15518,1.32297 0.42246,1.05569 0.26727,-0.26727 0.29584,-0.96101 0.0635,-1.54165 z M 287.6984,165.54298 c -0.25676,-0.64165 -0.44736,-0.45106 -0.48595,0.48595 -0.0349,0.84791 0.15518,1.32297 0.42245,1.0557 0.26728,-0.26728 0.29585,-0.96102 0.0635,-1.54165 z m -0.79639,-4.45883 c -0.20394,-0.7826 -0.38421,-0.33704 -0.4006,0.99012 -0.0164,1.32715 0.15047,1.96746 0.37079,1.4229 0.22033,-0.54457 0.23374,-1.63042 0.0298,-2.41302 z"
       id="path27"
       transform="scale(0.26458333)" />
    <path
       style="fill:#000000;fill-opacity:1;stroke:#000000;stroke-width:0.805605;stroke-opacity:1"
       d="m 569.06969,330.4474 c -8.15218,-0.77305 -16.04585,-2.80209 -27.74969,-7.13297 -11.32271,-4.18984 -13.46957,-5.52711 -20.13178,-12.53995 -7.59346,-7.99311 -12.8411,-15.53789 -18.03583,-25.93097 -8.41341,-16.83267 -11.91258,-30.71184 -12.87594,-51.07138 -0.3885,-8.2105 -0.28564,-9.47674 0.73797,-9.08394 0.65417,0.25103 1.38422,0.14118 1.62234,-0.2441 0.23812,-0.38528 -0.0218,-0.85778 -0.5775,-1.04999 -1.80971,-0.62592 25.24521,0.14182 36.39132,1.03268 11.1652,0.89239 89.34149,0.61958 101.74886,-0.35507 8.41408,-0.66096 7.88395,-0.66974 20.91281,0.34607 6.37128,0.49675 13.53085,1.56544 16.48894,2.46128 7.14317,2.16325 25.70805,11.92066 27.56554,14.488 1.65352,2.28543 2.21626,9.43147 1.14754,14.57188 -0.70166,3.37486 -4.90774,8.78176 -9.40313,12.08771 -4.20429,3.09187 -12.06717,5.90542 -25.45485,9.10842 l -11.39518,2.72629 -3.15074,-1.72584 c -1.73291,-0.94921 -3.70032,-1.51494 -4.372,-1.25719 -0.67275,0.25815 -3.11484,5.51607 -5.43728,11.70663 -3.61147,9.62655 -4.95809,12.17645 -9.39109,17.78261 -2.84629,3.59953 -6.66603,7.99153 -8.48831,9.76 -3.78435,3.67258 -11.52274,7.59233 -16.62466,8.42094 -1.90975,0.31017 -5.34829,1.22294 -7.64122,2.02838 -2.29294,0.80544 -7.24557,2.06126 -11.00585,2.79071 -3.76029,0.72946 -7.19883,1.40812 -7.64122,1.50813 -0.44239,0.10002 -3.69996,-0.0927 -7.23905,-0.42833 z m 10.85857,-11.48451 c 3.76029,-1.16989 9.28916,-2.63705 12.28638,-3.26036 8.82194,-1.83462 14.44563,-5.34903 20.44018,-12.77367 2.84556,-3.52441 6.02815,-7.88328 7.07243,-9.68637 2.10431,-3.63344 10.02498,-25.49071 11.97267,-33.03889 2.42861,-9.41198 3.77381,-18.97488 2.8681,-20.38904 -0.68131,-1.06378 -0.76073,-0.90112 -0.39904,0.81725 0.24835,1.17996 0.15561,2.26581 -0.2061,2.41302 -0.36172,0.14721 -1.66877,4.61108 -2.90455,9.91972 -6.89096,29.60193 -17.7631,50.26636 -29.91524,56.85921 -5.33888,2.89648 -24.93019,8.33706 -34.2421,9.50915 -6.86618,0.86425 -8.41474,0.79525 -15.756,-0.70201 -13.08484,-2.66868 -19.78948,-7.00346 -26.66471,-17.23966 -3.51493,-5.23321 -11.49972,-21.51121 -13.66808,-27.8641 -3.64009,-10.66479 -6.18858,-24.73159 -6.60335,-36.44828 -0.11797,-3.3327 -0.47598,-4.62495 -1.28129,-4.62495 -0.90441,0 -1.00698,1.11223 -0.53777,5.83146 0.31889,3.2073 0.54475,6.37438 0.50192,7.03796 -0.25485,3.94802 2.70852,19.85905 5.00353,26.86508 4.53874,13.85555 14.15173,31.58 21.38166,39.42354 8.5517,9.2775 33.03718,12.83103 50.65136,7.35094 z m 78.48701,-52.34414 c 12.7477,-3.47719 17.95671,-5.9342 21.59685,-10.18688 4.95809,-5.79242 5.6452,-16.80555 1.25308,-20.08474 -2.22148,-1.65858 -4.43116,-1.96694 -19.81718,-2.76553 l -10.57705,-0.54898 -0.86146,4.33559 c -2.02764,10.20485 -4.9298,27.77212 -4.9298,29.84098 0,2.92055 0.55386,2.89603 13.33556,-0.59044 z m -109.44473,-31.7669 c 0.63563,-1.02848 -4.87389,-1.54847 -22.21352,-2.09651 -12.44671,-0.3934 -16.72145,-0.285 -17.16664,0.43534 -0.4419,0.715 1.01304,0.92957 5.71526,0.84286 6.86318,-0.12655 25.42516,0.78522 25.91592,1.27301 0.56642,0.56299 7.36662,0.16396 7.74898,-0.4547 z m 77.60937,-0.0518 c -3.59386,-0.88354 -27.99263,-0.84148 -28.5431,0.0492 -0.22787,0.3687 6.73453,0.66419 15.47199,0.65663 10.545,-0.009 14.93978,-0.24643 13.07111,-0.70583 z m -131.10722,-9.26961 c 0,-0.66569 -1.56181,-1.04214 -1.91988,-0.46276 -0.23231,0.37587 0.10464,0.68341 0.74876,0.68341 0.64412,0 1.17112,-0.0993 1.17112,-0.22065 z"
       id="path28"
       transform="scale(0.26458333)" />
    <path
       style="fill:#000000;fill-opacity:1;stroke:#000000;stroke-width:0.805605;stroke-opacity:1"
       d="m 570.67837,330.82487 c -13.23409,-1.20227 -36.69073,-8.86366 -43.63773,-14.25292 -7.66062,-5.94286 -18.42411,-19.97163 -24.11744,-31.43385 -8.11371,-16.33512 -11.80754,-31.05165 -12.76941,-50.87443 -0.42906,-8.84214 -0.3409,-9.85315 0.85919,-9.85315 0.76279,0 1.10381,-0.37778 0.79381,-0.87938 -0.50419,-0.81579 20.17026,-0.51485 34.23078,0.49827 10.67094,0.76888 54.29198,0.87604 81.23821,0.19956 16.1471,-0.40537 30.26325,-0.75621 31.36922,-0.77965 3.97041,-0.0841 23.80227,1.86561 27.34751,2.68863 5.30901,1.23248 26.41545,11.97617 28.58828,14.55213 3.80139,4.50667 3.35012,14.67572 -0.92503,20.84476 -5.07791,7.32743 -12.04298,10.80197 -31.22011,15.57426 l -12.00243,2.98684 -3.50261,-1.7017 c -1.92644,-0.93593 -3.66655,-1.7017 -3.86692,-1.7017 -0.65753,0 -3.67502,6.45504 -6.52228,13.95251 -3.18402,8.3842 -6.0991,13.11232 -12.99662,21.07982 -6.09073,7.03556 -11.74033,10.44687 -22.14716,13.37276 -8.71064,2.44901 -25.89699,6.38103 -26.90161,6.15474 -0.33017,-0.0744 -2.04811,-0.26674 -3.81765,-0.4275 z m -1.98975,-9.93685 c 3.74868,-0.46612 9.7114,-1.70077 13.25049,-2.74367 3.53909,-1.0429 8.42545,-2.33987 10.85858,-2.88216 5.19739,-1.15839 10.80301,-3.82931 14.41429,-6.868 4.20335,-3.53689 12.13449,-14.55051 14.3265,-19.89457 6.53004,-15.92005 11.69464,-33.16877 12.56655,-41.96978 l 0.39842,-4.0217 -1.48173,4.82604 c -0.81495,2.65431 -2.78671,9.50648 -4.38167,15.22703 -5.4632,19.59448 -11.34219,31.882 -19.43755,40.62595 -6.53573,7.05938 -7.66152,7.61182 -26.86122,13.18136 -5.95014,1.72603 -17.93851,3.76237 -22.02359,3.74091 -5.00646,-0.0263 -17.26085,-2.95413 -21.94595,-5.24333 -8.53821,-4.17189 -17.091,-16.00293 -24.86275,-34.39253 -4.61482,-10.91965 -7.30933,-21.46554 -8.43004,-32.99392 -0.48085,-4.94626 -1.19092,-10.44101 -1.57795,-12.21056 -1.27317,-5.82114 -0.1622,14.77329 1.21493,22.52149 3.77908,21.26245 17.76563,48.90838 28.74583,56.81926 3.20283,2.30754 12.6528,5.41695 18.91104,6.22247 7.74179,0.99648 8.72294,0.99983 16.31582,0.0557 z m 89.26051,-54.31042 c 19.27863,-5.45731 25.67786,-10.98418 25.72117,-22.21484 0.0244,-6.33678 -1.89,-8.48418 -8.42789,-9.45343 -7.39199,-1.09587 -24.5319,-1.87715 -24.53575,-1.11839 -0.002,0.3706 -0.87431,5.56017 -1.93871,11.53239 -1.06442,5.97222 -2.16948,12.84931 -2.45568,15.28244 -0.2862,2.43312 -0.70398,5.05404 -0.92839,5.82425 -0.22441,0.77022 -0.21041,1.72012 0.0311,2.11089 0.48893,0.79111 5.67153,-0.0207 12.53415,-1.96331 z M 546.95037,234.93591 c 2.58441,-0.73902 -4.51622,-1.43252 -22.3204,-2.17997 -9.32704,-0.39157 -13.0705,-0.2945 -13.0705,0.33895 0,0.60293 3.80577,0.91821 11.86399,0.98286 6.5252,0.0523 13.49279,0.387 15.48353,0.74367 4.54313,0.81397 5.54724,0.82826 8.04338,0.11449 z m 73.99917,-0.069 c 0.82528,-0.53334 -1.20798,-0.77971 -6.43471,-0.77971 -4.20267,0 -8.18414,0.35087 -8.84772,0.77971 -0.82528,0.53333 1.20798,0.7797 6.43471,0.7797 4.20267,0 8.18414,-0.35087 8.84772,-0.7797 z"
       id="path29"
       transform="scale(0.26458333)" />
    <path
       style="fill:#000000;fill-opacity:1;stroke:#000000;stroke-width:0.805605;stroke-opacity:1"
       d="m 567.86318,331.15349 c -0.22119,-0.23048 -1.48802,-0.59657 -2.81518,-0.81353 -8.75314,-1.43093 -26.22591,-6.98571 -33.33768,-10.59839 -7.07633,-3.59467 -16.32828,-13.59049 -24.58355,-26.56008 -10.00509,-15.71866 -16.84019,-39.44318 -17.21143,-59.74056 -0.20912,-11.43373 -1.01786,-10.92007 16.23803,-10.31337 26.82507,0.94314 98.50378,1.368 115.19834,0.68282 18.53155,-0.76057 38.25225,0.37951 46.1487,2.66791 6.13648,1.77837 24.46737,11.32735 27.17993,14.15867 2.12644,2.21952 2.27828,2.82025 2.26529,8.96196 -0.011,5.18084 -0.3819,7.26826 -1.7416,9.80034 -4.18219,7.78822 -11.65823,12.1934 -28.51393,16.80155 -14.5797,3.98591 -16.67767,4.20656 -20.66337,2.1732 -3.92495,-2.00236 -3.482,-2.49796 -7.74003,8.65997 -3.90973,10.24524 -6.18758,14.42084 -11.52702,21.13049 -9.13811,11.48317 -13.88118,14.22751 -33.25991,19.24419 -11.11169,2.87654 -24.58158,4.84415 -25.63659,3.74483 z m 1.60868,-10.61992 c 6.50418,-0.7023 27.51165,-6.48992 32.22385,-8.87778 8.77473,-4.44649 17.12653,-15.95595 22.79224,-31.40956 4.30445,-11.74068 8.09678,-24.71492 8.79722,-30.09687 l 0.47107,-3.61952 -1.2156,4.02169 c -0.66857,2.21193 -2.68362,8.90364 -4.47789,14.87047 -5.74856,19.11684 -11.76628,30.921 -20.0574,39.34393 -4.90637,4.98438 -7.57319,6.40201 -18.02285,9.58064 -19.34757,5.88522 -30.06121,6.9747 -41.02157,4.17152 -14.71292,-3.76293 -20.87432,-9.09681 -30.05559,-26.01887 -6.38369,-11.76583 -12.28565,-29.16051 -13.51421,-39.83005 -1.23342,-10.71183 -1.81118,-12.5283 -1.44104,-4.53065 0.61405,13.26813 4.29557,25.93982 12.15163,41.82561 5.3028,10.72284 12.41761,20.85924 16.77273,23.89595 1.76954,1.23386 5.38907,3.01286 8.04338,3.95334 5.27679,1.86969 17.8851,3.87906 21.71715,3.46105 1.32716,-0.14478 4.40376,-0.47818 6.83688,-0.7409 z m 88.29788,-54.31839 c 11.68557,-3.13255 16.97112,-5.51003 20.83106,-9.36997 6.77781,-6.77781 6.82553,-18.72036 0.0845,-21.14375 -1.4512,-0.5217 -8.2726,-1.15562 -15.15867,-1.4087 l -12.52014,-0.46014 -2.60467,15.59851 c -1.43257,8.57917 -2.77299,16.41289 -2.97872,17.40826 -0.50933,2.46437 1.13525,2.38123 12.34665,-0.62421 z M 503.2612,237.93347 c -0.25677,-0.64165 -0.44736,-0.45106 -0.48596,0.48595 -0.0349,0.84791 0.15518,1.32297 0.42246,1.0557 0.26727,-0.26728 0.29585,-0.96102 0.0635,-1.54165 z m 113.66665,-3.06654 c 1.58609,-0.50796 1.16134,-0.64898 -2.01085,-0.66763 -2.21193,-0.013 -4.7456,0.28743 -5.63037,0.66763 -2.13296,0.91656 4.77924,0.91656 7.64122,0 z m -74.40134,-0.78594 c -5.6347,-0.81996 -30.29092,-1.6561 -27.34752,-0.9274 1.32716,0.32857 6.75143,0.69265 12.05393,0.80907 5.3025,0.11642 9.79675,0.36751 9.98721,0.55797 0.19046,0.19046 2.36719,0.30114 4.83718,0.24595 l 4.49089,-0.10035 z"
       id="path30"
       transform="scale(0.26458333)" />
    <path
       style="fill:#000000;fill-opacity:1;stroke:#000000;stroke-width:0.805605;stroke-opacity:1"
       d="m 560.7563,329.73866 c -9.66393,-2.18122 -25.57041,-7.74328 -30.58333,-10.69416 -8.42307,-4.95827 -20.83961,-20.17023 -27.67561,-33.9064 -7.85473,-15.7832 -11.67636,-30.78198 -12.40187,-48.67371 -0.41697,-10.2828 -0.31358,-11.80675 0.86749,-12.78696 1.09871,-0.91184 4.42357,-1.00874 18.40882,-0.53649 29.97578,1.01223 81.46746,1.31399 105.94737,0.62089 30.88133,-0.87433 46.97071,0.23876 56.06018,3.87837 11.29505,4.52276 23.67489,11.89009 25.04958,14.9072 1.44985,3.1821 1.12761,12.32357 -0.56582,16.05116 -2.18204,4.8031 -9.48698,11.05605 -15.9288,13.63489 -6.05969,2.42587 -25.77859,7.67645 -28.82937,7.67645 -1.07193,0 -3.2317,-0.6117 -4.79949,-1.35932 -2.08511,-0.99432 -3.08977,-1.12009 -3.74149,-0.46837 -0.49003,0.49003 -2.62327,5.24083 -4.74055,10.55735 -4.50203,11.30466 -7.96884,16.8367 -15.58194,24.86431 -6.49518,6.84883 -10.93082,9.20957 -24.43379,13.00417 -18.11074,5.0895 -25.83257,5.76278 -37.05138,3.23062 z m 13.94376,-10.40143 c 10.58895,-2.30065 21.78113,-5.42023 25.75869,-7.17969 6.93083,-3.06584 15.7589,-13.2372 20.42959,-23.53819 4.41798,-9.74365 12.73663,-35.71473 11.75425,-36.69712 -0.1854,-0.1854 -0.92384,1.78303 -1.64096,4.3743 -5.27205,19.05022 -11.32706,33.63583 -17.63058,42.46942 -6.74562,9.45314 -11.27432,12.27005 -27.00808,16.79937 -11.6676,3.35878 -18.433,4.5525 -25.73884,4.54147 -12.28462,-0.0185 -25.25143,-4.96318 -31.6352,-12.06347 -9.60619,-10.68439 -20.23463,-34.60841 -23.39718,-52.66576 -0.68409,-3.90596 -1.14985,-5.32838 -1.18519,-3.61952 -0.21338,10.31938 8.69523,34.66982 17.9884,49.16876 7.5414,11.76588 13.19473,15.88091 25.33858,18.44382 9.04867,1.90969 18.07473,1.89851 26.96652,-0.0334 z m 83.48997,-53.47459 c 11.43339,-3.13354 15.83509,-5.08782 19.73511,-8.76202 3.93296,-3.70524 5.22202,-6.69831 5.29565,-12.29592 0.11281,-8.57683 -2.48987,-9.86162 -20.56938,-10.15396 l -11.50263,-0.18598 -2.16479,12.06508 c -3.11576,17.36515 -3.57233,22.11931 -2.12424,22.11931 0.6397,0 5.73834,-1.25393 11.33028,-2.78651 z"
       id="path31"
       transform="scale(0.26458333)" />
    <path
       style="fill:#000000;fill-opacity:1;stroke:#000000;stroke-width:0.805605;stroke-opacity:1"
       d="m 560.62413,329.8065 c -8.23652,-1.7684 -26.17903,-8.03769 -30.86789,-10.78554 -4.4331,-2.59797 -14.31163,-13.04283 -19.53747,-20.65753 -8.25145,-12.0234 -15.25413,-28.70279 -18.3849,-43.7902 -1.67173,-8.05617 -2.62454,-30.07873 -1.33582,-30.8752 1.44146,-0.89087 157.1792,-0.19679 166.40588,0.74163 4.51259,0.45896 10.23209,1.532 12.71001,2.38453 5.91637,2.03553 21.28184,10.04319 24.62197,12.83166 2.39377,1.99841 2.66195,2.67851 2.97118,7.53495 0.45047,7.0745 -0.18978,10.0318 -3.13434,14.47728 -4.79243,7.23524 -14.45796,11.88247 -34.73149,16.69906 -6.88262,1.63517 -8.28007,1.74266 -11.26074,0.86618 -1.87164,-0.55036 -3.89934,-1.07572 -4.50601,-1.16746 -0.71188,-0.10766 -2.73644,3.72578 -5.70925,10.81024 -2.53342,6.03738 -6.09294,13.07277 -7.91003,15.63419 -4.77908,6.73672 -12.39313,14.21134 -17.06862,16.75606 -7.62932,4.1524 -31.97904,10.16996 -40.72591,10.06464 -2.58483,-0.0311 -7.77628,-0.71715 -11.53657,-1.52449 z m -14.62859,-11.66619 c -9.25774,-2.54978 -15.9905,-7.49768 -21.75698,-15.9892 -2.63067,-3.87383 -7.21162,-12.87138 -13.37132,-26.26291 l -0.92493,-2.01084 0.46122,2.01084 c 0.25368,1.10597 2.95337,7.07818 5.99933,13.27159 5.89852,11.99361 11.70466,20.54878 16.35094,24.09268 3.03096,2.31182 12.71679,6.07292 15.40308,5.98114 0.88478,-0.0302 -0.0878,-0.52221 -2.16134,-1.0933 z m 49.62822,-4.45193 c 9.5218,-3.27598 15.28861,-8.29697 21.63596,-18.83779 2.94542,-4.89136 8.05293,-16.47607 7.50541,-17.02359 -0.17478,-0.17478 -1.30992,2.12262 -2.52253,5.10533 -4.56389,11.22599 -12.90868,22.732 -19.39295,26.7395 -1.49714,0.92529 -5.18569,2.54339 -8.19678,3.59578 -3.01109,1.0524 -5.07893,1.9404 -4.59521,1.97333 0.48373,0.0329 2.98848,-0.66573 5.5661,-1.55256 z M 507.1635,262.9634 c -1.07781,-4.17221 -1.97744,-6.88658 -1.9992,-6.03193 -0.047,1.84762 3.24361,14.33302 3.66621,13.91042 0.16095,-0.16096 -0.5892,-3.70628 -1.66701,-7.87849 z m 149.02498,3.2826 c 20.03,-5.0274 26.69515,-10.39944 26.69515,-21.516 0,-6.19854 -1.28102,-7.92431 -6.64242,-8.94855 -7.63649,-1.45887 -22.55568,-1.92704 -24.05254,-0.75477 -0.96624,0.75671 -2.03701,5.25624 -3.86433,16.23843 -1.39025,8.35543 -2.32886,15.70992 -2.08581,16.34332 0.2506,0.65306 1.05304,0.97063 1.85348,0.73354 0.77636,-0.22996 4.41977,-1.17314 8.09647,-2.09597 z m -25.69994,-5.64023 c 0,-0.76049 -0.25554,-0.61181 -0.69127,0.40217 -0.3802,0.88477 -0.69127,2.1516 -0.69127,2.81518 0,0.76049 0.25554,0.61181 0.69127,-0.40217 0.3802,-0.88477 0.69127,-2.1516 0.69127,-2.81518 z m 0.66252,-3.36817 c -0.25676,-0.64165 -0.44736,-0.45106 -0.48595,0.48595 -0.0349,0.84791 0.15517,1.32297 0.42246,1.0557 0.26727,-0.26728 0.29584,-0.96102 0.0635,-1.54165 z"
       id="path32"
       transform="scale(0.26458333)" />
    <path
       style="fill:#000000;fill-opacity:1;stroke:#ffffff;stroke-width:0.805605;stroke-opacity:1"
       d="m 561.0263,330.06807 c -7.37153,-1.55585 -21.06368,-6.2087 -28.2009,-9.58321 -4.42716,-2.09317 -7.10365,-4.16875 -12.13879,-9.41347 -14.18729,-14.77781 -23.5864,-32.71145 -28.51942,-54.41549 -1.95116,-8.58462 -3.09794,-32.07482 -1.61075,-32.99396 1.09465,-0.67653 146.85541,-0.35323 160.95798,0.35701 13.07174,0.65832 17.93935,2.01587 30.7052,8.56353 14.21546,7.29118 15.14211,8.32563 15.14211,16.90378 0,7.66456 -1.23395,10.77628 -6.27483,15.82356 -4.65628,4.66219 -12.92648,8.36695 -26.49686,11.86969 -8.47639,2.18789 -11.9115,2.73439 -14.6843,2.33616 -8.01655,-1.15133 -7.03311,-1.95844 -12.17775,9.99428 -5.30579,12.32712 -8.13822,16.77674 -15.51703,24.3766 -6.265,6.45269 -11.30502,9.15542 -23.49674,12.60023 -17.89599,5.05658 -26.72369,5.89543 -37.68792,3.58129 z m -24.53233,-15.6532 c -1.54835,-0.92633 -4.21951,-3.00621 -5.93592,-4.62194 -2.64807,-2.49275 -2.91071,-2.60655 -1.73407,-0.75141 1.40135,2.20942 8.01698,7.06616 9.61765,7.06061 0.47714,-0.002 -0.39931,-0.76092 -1.94766,-1.68726 z m 79.8761,-18.28679 c 2.04112,-3.57416 1.08115,-3.18392 -1.16074,0.47185 -1.01735,1.65895 -3.30907,4.67741 -5.09272,6.7077 -2.70629,3.08051 -2.57742,3.00243 0.7787,-0.47185 2.21193,-2.28981 4.67557,-5.30827 5.47476,-6.7077 z m 42.29369,-30.74001 c 18.68886,-5.37931 24.20053,-10.25643 24.21538,-21.42748 0.01,-7.15139 -4.64818,-9.09366 -21.80712,-9.09366 -9.21924,0 -9.54051,0.0584 -9.94661,1.80976 -1.27852,5.51377 -4.43703,25.53919 -4.43703,28.13153 0,3.82978 0.58586,3.85815 11.97538,0.57985 z"
       id="path33"
       transform="scale(0.26458333)" />
    <path
       style="fill:#ffffff;fill-opacity:1;stroke:#ffffff;stroke-width:0.264999;stroke-opacity:1"
       id="path34"
       d="m 29.242813,58.229573 c 0.06288,-0.471437 0.25931,-0.893318 0.446508,-1.322644 0.09671,-0.156294 0.228981,-0.2639 0.311944,-0.428643 0.0587,-0.111258 0.07323,-0.234135 0.08275,-0.357413 0.0019,-0.09197 0.0024,-0.184584 -0.0016,-0.276614 -0.01196,-0.155254 0.01929,-0.311546 -0.0091,-0.464248 -0.110148,-0.05354 -0.07119,-0.201689 -0.154712,-0.273127 -0.08575,-0.03189 -0.04799,-0.009 -0.114271,-0.06693 -0.03972,-0.158451 -0.18315,-0.17412 -0.276812,-0.289454 -0.0278,-0.04555 -0.05021,-0.0076 -0.06785,-0.06513 -0.0038,-0.01236 0.0024,-0.04592 -0.0078,-0.038 -0.02122,0.01646 -0.02905,0.0461 -0.03606,0.07201 -0.0055,0.02029 0.02093,-0.03649 0.03139,-0.05474 0.05191,-0.09248 0.112329,-0.176993 0.183092,-0.25546 0.06635,-0.118893 0.08639,-0.03204 0.139448,-0.05751 0.06125,-0.02941 0.11143,-0.07782 0.168561,-0.114586 0.148609,-0.147214 0.339934,-0.219845 0.509138,-0.335216 0.166724,-0.113954 0.32467,-0.184301 0.467532,-0.32325 0.103711,-0.111966 0.205735,-0.225443 0.311039,-0.336002 0.07903,-0.132556 0.118538,-0.275934 0.130392,-0.428318 0.0067,-0.13316 0.0021,-0.266645 0.0016,-0.399915 0.05843,-0.161356 -0.04079,-0.202983 -0.08881,-0.323226 -0.08171,-0.204647 0.02381,-0.02273 -0.07364,-0.176882 -0.136893,-0.009 -0.116367,-0.161234 -0.206555,-0.223475 -0.0898,-0.0258 -0.05023,-0.0051 -0.119991,-0.05956 -0.128263,-0.14835 -0.222187,-0.306102 -0.325972,-0.467839 -0.09156,-0.06454 -0.144804,-0.162005 -0.221798,-0.242687 -0.01725,-0.06951 -0.03834,-0.173863 -0.02661,-0.187597 0.09569,-0.124746 0.185478,-0.257363 0.271394,-0.392954 0.134352,-0.105765 0.166391,-0.319297 0.286345,-0.426524 0.134056,-0.181965 0.228857,-0.365133 0.236037,-0.595043 -0.08155,-0.164243 -0.07758,-0.360492 -0.162441,-0.518094 -0.04308,-0.122113 -0.140552,-0.209809 -0.17708,-0.330943 -0.03247,-0.102979 -0.0316,-0.211196 -0.03235,-0.318276 -0.0016,-0.09986 0.0075,-0.238127 -0.009,-0.314801 0.08122,-0.112458 0.118144,-0.247147 0.176612,-0.371165 0.105452,-0.138179 0.157173,-0.304708 0.244618,-0.453411 0.123534,-0.177361 0.174172,-0.387361 0.203528,-0.59802 0.02657,-0.200204 0.02416,-0.402198 0.02283,-0.603636 -0.02365,-0.161335 -0.12506,-0.297013 -0.17055,-0.451757 -0.01098,-0.134623 -0.07949,-0.32099 -0.188738,-0.413121 -0.06268,-0.123452 -0.06304,-0.262085 -0.06902,-0.397285 0.0071,-0.287197 -0.0024,-0.562486 -0.07842,-0.840118 -0.05598,-0.260517 -0.189074,-0.492903 -0.273027,-0.743471 0,0 -3.599685,-1.699848 -3.599685,-1.699848 v 0 c 0.07336,0.254601 0.164716,0.495806 0.292994,0.728917 0.06292,0.275315 0.161425,0.451911 0.112951,0.752533 -0.0039,0.167243 -0.01447,0.335447 0.008,0.501663 0.0056,0.122042 0.08668,0.34762 0.211111,0.371253 0.02003,0.164542 0.04006,0.358791 0.159616,0.482841 0.113657,0.092 0.02969,0.332385 0.04602,0.469503 -0.009,0.159679 -0.02564,0.315026 -0.122182,0.448937 -0.08976,0.153741 -0.153535,0.316317 -0.254109,0.463399 -0.0762,0.133276 -0.108307,0.283538 -0.201776,0.408914 -0.07259,0.149275 -0.06975,0.283141 -0.0629,0.449032 -0.0011,0.128072 -0.0083,0.256704 -0.0032,0.384307 0.01815,0.165016 0.0286,0.305493 0.133789,0.443355 0.01471,0.02795 0.0294,0.0559 0.0441,0.08385 0.02106,0.0079 0.05062,0.005 0.06315,0.02365 0.05861,0.0873 -0.0019,0.254121 0.08084,0.339833 0.02702,0.0113 0.07019,-0.007 0.08608,0.01765 0.03098,0.04797 -0.127058,0.201343 -0.14011,0.242266 -0.105693,0.152087 -0.179348,0.324135 -0.307885,0.462745 -0.07874,0.132824 -0.17508,0.251712 -0.26579,0.376026 -0.09782,0.153919 -0.143608,0.279866 -0.120462,0.460875 -0.0081,0.141925 0.03172,0.35024 0.13829,0.441682 0.04456,0.03516 0.106974,0.05302 0.136914,0.101241 0.02027,0.03265 0.01296,0.07669 0.02906,0.111588 0.03778,0.08188 0.130236,0.138998 0.171411,0.219593 0.02614,0.05745 0.03064,0.127553 0.07221,0.175041 0.06593,0.0753 0.188175,-0.02716 0.213551,0.204517 0.04543,0.01273 0.101576,-0.0063 0.139943,0.02117 0.07989,0.05717 0.0091,0.211958 0.16935,0.156242 7.93e-4,0.128214 -2.65e-4,0.25645 0.0028,0.384635 0.0013,0.05754 0.0038,0.1387 0.0039,0.184166 -0.08855,0.104563 -0.179081,0.207875 -0.28121,0.299572 -0.131738,0.09789 -0.290052,0.167378 -0.422725,0.268322 -0.181446,0.09461 -0.336674,0.223202 -0.511675,0.3278 -0.142766,0.0754 -0.286154,0.130474 -0.378533,0.276529 -0.08423,0.0974 -0.155337,0.20043 -0.218143,0.313002 -0.08911,0.13485 -0.169972,0.298384 -0.117067,0.464108 0.05987,0.144772 0.08293,0.322924 0.265809,0.326885 0.02572,0.05585 0.02938,0.124746 0.07051,0.17045 0.07091,0.0788 0.181351,-0.05146 0.193824,0.173424 0.0378,0.0057 0.08631,-0.03015 0.114562,-0.0044 0.03717,0.03387 -0.0232,0.19422 -7.94e-4,0.244152 -0.0027,0.08901 7.94e-4,0.178441 0.0028,0.267343 0.004,0.07144 0.01752,0.143883 -2.64e-4,0.212839 -0.06153,0.166688 -0.256576,0.272749 -0.301576,0.453274 -0.174367,0.448982 -0.362725,0.89077 -0.463537,1.364572 z" />
    <path
       style="fill:#ffffff;fill-opacity:1;stroke:#ffffff;stroke-width:0.264999;stroke-opacity:1"
       id="path35"
       d="m 37.25269,55.972958 c -0.305094,-0.422574 -0.615752,-0.842674 -0.842076,-1.313931 -0.10387,-0.232021 -0.184481,-0.486688 -0.133641,-0.740516 0.07875,-0.264012 0.22456,-0.502936 0.379685,-0.728536 0.185888,-0.219892 0.345342,-0.462388 0.552074,-0.663146 0.11707,-0.124251 0.177319,-0.288928 0.276511,-0.424527 0.144573,-0.170886 0.180387,-0.394853 0.227634,-0.605983 0.08864,-0.248454 0.152149,-0.503454 0.202126,-0.762082 0.03685,-0.251788 0.03151,-0.507494 0.03556,-0.761341 0.0051,-0.226065 -0.0077,-0.452781 0.0057,-0.678548 0.05695,-0.20284 0.09316,-0.414395 0.196374,-0.599866 0.15095,-0.265819 0.351004,-0.491659 0.541171,-0.729443 0.205041,-0.27392 0.27129,-0.584769 0.301453,-0.917839 0.02463,-0.440188 -0.217715,-0.811025 -0.453142,-1.161944 -0.250039,-0.345205 -0.506296,-0.686237 -0.764857,-1.025266 -0.153416,-0.195181 -0.208277,-0.05089 -0.01537,-0.266713 0.444142,-0.327634 0.789045,-0.739863 1.106474,-1.186844 0.490199,-0.640014 0.770726,-1.285333 0.80794,-2.091222 -0.09195,-0.89141 -0.626304,-1.608426 -1.195983,-2.263897 -0.255358,-0.315116 -0.58551,-0.560025 -0.848598,-0.866743 -0.09155,-0.1285 -0.148149,0.06714 -0.03634,-0.128029 0.164002,-0.168447 0.28362,-0.430059 0.368483,-0.648404 0.178953,-0.357127 0.294505,-0.733497 0.33555,-1.130247 0.0026,-0.297143 -0.06328,-0.588079 -0.106019,-0.880618 -0.02961,-0.07241 -0.04054,-0.257514 -0.148876,-0.252082 0,0 -3.559786,-1.791295 -3.559786,-1.791295 v 0 c -0.03591,0.17441 -0.01624,0.238109 0.107548,0.360246 0.150299,0.199162 0.09171,0.526936 0.178602,0.75983 0.04073,0.355132 -0.121679,0.693375 -0.270941,1.007457 -0.07887,0.213971 -0.209169,0.405408 -0.35519,0.579369 -0.100436,0.15704 -0.261377,0.338222 -0.16088,0.53213 0.217387,0.389345 0.577884,0.636053 0.890071,0.946681 0.561385,0.577707 1.093261,1.194396 1.30293,1.992503 0.04027,0.736201 -0.24198,1.299142 -0.684556,1.8762 -0.32521,0.430507 -0.696764,0.795555 -1.125598,1.123125 -0.180007,0.188841 -0.455541,0.517723 -0.239147,0.768871 0.274429,0.32893 0.520833,0.678984 0.8006,1.002768 0.194813,0.29704 0.430808,0.581377 0.547664,0.918419 -0.01363,0.255863 -0.02814,0.499322 -0.188542,0.712171 -0.197919,0.258014 -0.413898,0.500775 -0.584054,0.779219 -0.122685,0.225801 -0.182629,0.463225 -0.25072,0.710473 -0.06712,0.244372 -0.04132,0.49212 -0.04243,0.744392 0.0026,0.235119 0.0026,0.470609 -0.01249,0.70535 -0.02855,0.247105 -0.07853,0.490222 -0.169886,0.722651 -0.05567,0.165087 -0.05639,0.347033 -0.176593,0.482999 -0.08507,0.122796 -0.131985,0.268434 -0.235591,0.379826 -0.204941,0.229412 -0.386903,0.479163 -0.575095,0.722151 -0.182222,0.263038 -0.353793,0.544036 -0.457375,0.847561 -0.09726,0.334624 -0.08596,0.649348 0.02693,0.983771 0.208714,0.494369 0.49081,0.944483 0.813736,1.373116 z" />
    <path
       style="fill:#ffffff;fill-opacity:1;stroke:#ffffff;stroke-width:0.264999;stroke-opacity:1"
       id="path36"
       d="m 46.169913,57.01571 c -0.381233,-0.231108 -0.730512,-0.502928 -1.012793,-0.848545 -0.169545,-0.210482 -0.08805,-0.331994 0.03014,-0.559332 0.19961,-0.423735 0.40082,-0.847315 0.592259,-1.274852 0.146143,-0.301078 0.233143,-0.607418 0.175554,-0.940234 -0.03803,-0.232445 -0.180451,-0.428141 -0.303794,-0.625004 -0.03208,-0.111435 -0.220589,-0.192114 -0.196178,-0.277977 0.407334,-0.406958 0.878813,-0.743786 1.353272,-1.067348 0.967216,-0.6355 1.979977,-1.198538 2.968858,-1.799296 0.443735,-0.262461 0.91658,-0.546539 1.085704,-1.057055 0.06108,-0.473538 -0.231235,-0.868188 -0.480348,-1.242327 -0.193138,-0.368057 -0.491152,-0.709785 -0.575387,-1.124506 -0.04346,-0.271121 0.101124,-0.489506 0.25286,-0.699913 0.23835,-0.25178 0.411564,-0.540885 0.533381,-0.864174 0.137562,-0.46237 0.0085,-0.915575 -0.184348,-1.339895 -0.157816,-0.3404 -0.371695,-0.64807 -0.567153,-0.966616 -0.09403,-0.126362 -0.159708,-0.24421 -0.17844,-0.401947 -0.01609,-0.172902 -0.01252,-0.347355 -0.01021,-0.520866 0.0021,-0.308907 0.0026,-0.616101 -0.04597,-0.92174 -0.05019,-0.238527 -0.104812,-0.476033 -0.142455,-0.716878 7.94e-4,-0.19866 -0.05618,-0.381378 -0.130074,-0.562779 -0.06913,-0.0517 -0.08858,-0.15567 -0.09687,-0.238265 0.01974,-0.161274 7.94e-4,-0.278231 -0.128691,-0.38776 -0.08729,-0.157946 -0.08234,-0.342511 -0.09522,-0.517658 -0.107356,-0.367733 -0.189411,-0.741664 -0.2948,-1.110041 -0.11671,-0.403672 -0.269655,-0.793869 -0.432125,-1.180832 -0.08144,-0.116795 -0.120875,-0.371616 -0.269849,-0.416611 0.05278,-0.07813 0.08351,-0.173884 0.113096,-0.264424 0.01503,-0.03725 0.03319,-0.155194 0.0145,-0.119639 0,0 -3.455819,-1.98967 -3.455819,-1.98967 v 0 c -0.0509,0.09178 -0.08331,0.113282 -0.06616,0.203745 -0.01992,0.100539 -0.05407,0.182756 -0.110315,0.27033 -0.122637,0.333796 -0.0186,0.408268 0.164875,0.682144 0.207303,0.351864 0.339328,0.748294 0.469892,1.133464 0.128307,0.351631 0.188253,0.716444 0.278109,1.077817 0.105156,0.15661 0.01775,0.373455 0.07046,0.55199 0.003,0.03129 0.05255,0.268378 0.109942,0.270568 0.02987,0.0011 0.04164,-0.05422 0.07154,-0.05408 0.01815,8.5e-5 1.27e-4,0.03628 1.9e-4,0.05442 -0.0013,0.135731 0.0013,0.268785 0.01717,0.40427 0.09067,0.124838 0.202351,0.267303 0.208968,0.421418 0.01191,0.260495 0.07108,0.510945 0.134149,0.763392 0.07728,0.278802 0.09345,0.547851 0.07083,0.837186 -5.29e-4,0.182417 -0.0049,0.364802 -0.0087,0.547169 0.007,0.19685 -0.0069,0.411673 0.10827,0.580959 0.197437,0.315807 0.410932,0.615032 0.598556,0.935794 0.168966,0.327015 0.396798,0.671428 0.314227,1.055788 -0.09426,0.298638 -0.270322,0.532813 -0.475043,0.766599 -0.203071,0.283053 -0.393134,0.597617 -0.39202,0.956587 0.0057,0.117965 0.009,0.304184 0.04156,0.41514 0.09444,0.32159 0.365046,0.571182 0.478116,0.885245 0.200125,0.316132 0.451088,0.606113 0.582488,0.957657 0.07531,0.24506 -0.708941,0.70508 -0.855536,0.813564 -0.978786,0.62465 -1.986005,1.201592 -2.974234,1.810571 -0.539932,0.35316 -1.114777,0.713835 -1.531832,1.212418 -0.12293,0.238713 -0.192714,0.439362 0.0099,0.648044 0.128463,0.164404 0.204155,0.356693 0.371099,0.484447 0.02159,0.07745 0.09286,0.203592 0.0918,0.284387 -0.0019,0.151493 -0.0965,0.30312 -0.134287,0.444934 -0.175995,0.420982 -0.374729,0.833149 -0.5824,1.239198 -0.159311,0.280765 -0.363982,0.602247 -0.217692,0.926824 0.195699,0.431009 0.557549,0.753719 0.94819,1.010881 z" />
    <path
       style="fill:#ffffff;fill-opacity:1;stroke:#ffffff;stroke-width:0.264999;stroke-opacity:1"
       id="path37"
       d="m 137.62972,55.668404 c 0.97808,0.562742 1.95458,1.128239 2.93424,1.688222 0.19511,0.111529 -0.38606,-0.230206 -0.58055,-0.342821 -1.32028,-0.764516 -2.64263,-1.525453 -3.96373,-2.288558 -0.85101,-0.491567 1.6985,0.989303 2.55347,1.473946 0.24141,0.136842 -0.47582,-0.285692 -0.71258,-0.43043 -0.22337,-0.136557 -0.4452,-0.275627 -0.6678,-0.41344 -0.68803,-0.446948 -1.37688,-0.895893 -1.99427,-1.438434 -0.16786,-0.129334 -0.12787,-0.146664 0.0197,-0.272185 0.29406,-0.130283 0.53014,-0.352523 0.79677,-0.526047 0.30322,-0.240332 0.57378,-0.51004 0.74946,-0.856869 0.1904,-0.383657 0.0765,-0.797894 -0.0247,-1.190427 -0.16261,-0.445878 -0.3387,-0.87208 -0.31194,-1.353084 0.12053,-0.664506 0.59623,-1.154615 1.07382,-1.595805 0.66077,-0.538041 1.36169,-1.023832 2.03034,-1.551125 0.3557,-0.247381 0.61875,-0.530138 0.74422,-0.946878 0.0673,-0.373552 -0.11734,-0.6839 -0.32337,-0.977313 -0.11143,-0.109767 -0.18481,-0.23029 -0.25685,-0.365365 0.0866,-0.278993 0.34837,-0.495237 0.54399,-0.702586 0.43974,-0.40714 0.80063,-0.868526 1.06544,-1.405572 0.31531,-0.723553 0.0645,-1.376198 -0.25923,-2.040067 -0.25049,-0.493247 -0.49749,-0.989928 -0.77891,-1.466604 -0.0728,-0.168127 -0.0311,-0.308324 0.0619,-0.454239 0.13221,-0.241012 0.16353,-0.511776 0.18094,-0.781212 0.0437,-0.364212 -0.0281,-0.71375 -0.10045,-1.067668 -0.0523,-0.274301 -0.077,-0.552778 -0.0859,-0.831593 0,0 -3.55657,-1.789814 -3.55657,-1.789814 v 0 c 0.0198,0.296085 0.0399,0.592175 0.0808,0.886278 0.0525,0.330369 0.17805,0.644038 0.13651,0.982033 -0.009,0.203258 -0.008,0.417846 -0.0983,0.604784 -0.13945,0.239908 -0.24015,0.476234 -0.20854,0.761355 0.0928,0.531415 0.64268,1.016529 0.80132,1.544891 0.28573,0.542941 0.64457,1.079871 0.39694,1.707026 -0.23541,0.510148 -0.59377,0.916905 -1.00661,1.294868 -0.26138,0.26916 -0.56432,0.537445 -0.69177,0.899776 -0.0668,0.224928 -0.0521,0.486643 0.12402,0.662075 0.17912,0.199805 0.36889,0.404532 0.47955,0.650894 -0.054,0.339936 -0.32163,0.534947 -0.57303,0.746823 -0.66724,0.540835 -1.36717,1.040511 -2.03019,1.586746 -0.54287,0.512194 -1.06437,1.069636 -1.25003,1.814639 -0.0836,0.527154 0.0111,1.012317 0.24167,1.494153 0.0963,0.289758 0.24248,0.621797 0.1424,0.922827 -0.13142,0.29128 -0.37862,0.498811 -0.63189,0.684993 -0.27738,0.194498 -0.56489,0.372594 -0.84087,0.567859 -0.23965,0.234114 -0.41342,0.485473 -0.29032,0.830257 0.52335,0.698167 1.39945,1.05881 2.07026,1.585976 1.77576,1.101318 3.55831,2.112277 5.38167,3.168351 0.87274,0.505487 -1.7447,-1.012367 -2.62004,-1.513334 -0.18477,-0.105744 0.36548,0.218411 0.54822,0.327617 1.2568,0.730785 2.5136,1.461569 3.7704,2.192354 z" />
    <path
       style="fill:#ffffff;fill-opacity:1;stroke:#ffffff;stroke-width:0.264999;stroke-opacity:1"
       id="path38"
       d="m 150.35824,55.871435 c -0.83575,-0.08553 -1.66357,-0.232207 -2.48463,-0.407927 -0.29315,-0.109598 -0.61246,-0.16877 -0.90095,-0.291647 -0.1076,-0.04583 -0.23721,-0.140066 -0.33538,-0.207055 1.09524,0.631467 2.19049,1.262933 3.28573,1.8944 -0.29855,-0.101962 -0.2207,-0.102669 -0.0205,-0.355068 0.48646,-0.470291 1.04405,-0.858639 1.57826,-1.271688 0.6872,-0.524925 1.4112,-1.003652 2.07648,-1.556454 0.43203,-0.292917 0.74754,-0.673618 0.92685,-1.161558 0.0962,-0.396919 -0.062,-0.74286 -0.28296,-1.062659 -0.0994,-0.217051 -0.30254,-0.352832 -0.41118,-0.56185 -0.11484,-0.316691 0.14479,-0.565119 0.31842,-0.810366 0.31478,-0.431967 0.69449,-0.813636 0.98788,-1.26051 0.28372,-0.487743 0.27811,-0.83925 0.0478,-1.344313 -0.23018,-0.433382 -0.59066,-0.766871 -0.91939,-1.12258 -0.10476,-0.115694 -0.28507,-0.265287 -0.25684,-0.436716 0.0696,-0.279053 0.15704,-0.553391 0.27028,-0.817861 0.22873,-0.457099 0.20235,-0.956469 0.14978,-1.449311 -0.1733,-0.749705 -0.62857,-1.39547 -1.00914,-2.054095 -0.17187,-0.316119 -0.3619,-0.629962 -0.46913,-0.975635 -0.0471,-0.0818 0.0684,-0.227301 0.10082,-0.310261 0.0657,-0.208095 0.0687,-0.427024 0.0693,-0.643094 -0.063,-0.225999 -0.13775,-0.443142 -0.17649,-0.675259 -0.0291,-0.221173 -0.0305,-0.444248 -0.0344,-0.666858 -0.0146,-0.327195 0.0845,-0.645777 0.17863,-0.955429 0.11877,-0.373272 0.2202,-0.757849 0.37129,-1.119685 0.10237,-0.184862 0.159,-0.482253 0.35528,-0.595286 0.0979,-0.170405 0.28568,-0.196088 0.40321,-0.337005 0.15175,-0.08092 0.23965,-0.167471 0.31961,-0.320794 0.0481,-0.09623 0.0402,-0.177306 0.11076,-0.244242 0.0872,-0.08431 0.12529,-0.220509 0.15963,-0.335714 0.0271,-0.109456 0.0249,-0.222393 0.0248,-0.334219 0.002,-0.101799 -0.002,-0.20346 1.3e-4,-0.305282 0,0 -3.55637,-1.810906 -3.55637,-1.810906 v 0 c 0.002,0.102306 -2.4e-4,0.204496 0.003,0.306768 5.3e-4,0.08507 -0.005,0.172779 0.01,0.256498 -0.006,0.06561 -0.008,0.121439 -0.0555,0.163478 -0.0793,0.10191 -0.16089,0.204634 -0.16384,0.334939 -0.0143,0.04225 -0.19339,0.127169 -0.24679,0.203848 -0.15158,0.0822 -0.27617,0.202327 -0.39279,0.33242 -0.19293,0.216614 -0.32376,0.476499 -0.4284,0.745998 -0.15812,0.372684 -0.24919,0.775734 -0.38232,1.15788 -0.10841,0.34231 -0.23118,0.694055 -0.25281,1.053476 -0.002,0.235844 -2.1e-4,0.472225 0.0177,0.707461 0.0174,0.245131 0.0391,0.493466 0.14934,0.716889 0.10127,0.104812 0.0277,0.297719 0.0294,0.435287 -0.0528,0.179147 -0.1831,0.329787 -0.2024,0.522494 0.0861,0.397446 0.26906,0.749996 0.47254,1.10091 0.37917,0.61963 0.76847,1.240012 1.06393,1.903648 0.0665,0.415134 0.12292,0.855424 -0.0712,1.244227 -0.12881,0.277741 -0.22408,0.570925 -0.31198,0.863533 -0.10864,0.325483 -0.0935,0.513721 0.0946,0.80831 0.32663,0.346277 0.68319,0.661514 0.97152,1.040982 0.25071,0.362509 0.37878,0.543029 0.14433,0.96116 -0.28417,0.443992 -0.65427,0.826246 -0.9702,1.24727 -0.24281,0.327681 -0.5592,0.670988 -0.51027,1.107159 0.033,0.286523 0.13502,0.493565 0.36999,0.670267 0.14072,0.253468 0.39351,0.455604 0.43796,0.753591 -0.12086,0.43324 -0.42664,0.726718 -0.77911,0.993616 -0.65648,0.550606 -1.36722,1.034701 -2.05131,1.549943 -0.57215,0.422616 -1.16981,0.821266 -1.67418,1.32625 -0.22477,0.27608 -0.48842,0.587986 -0.28491,0.945023 1.80773,1.049674 2.92267,2.028912 4.77204,2.409177 0.84797,0.163454 1.70457,0.309679 2.56631,0.3702 z" />
    <path
       style="fill:#ffffff;fill-opacity:1;stroke:#ffffff;stroke-width:0.264999;stroke-opacity:1"
       id="path39"
       d="m 162.11994,55.775251 c -0.86782,-0.262954 -1.70769,-0.602621 -2.54981,-0.935943 0.31609,0.204629 -0.89731,-0.476858 -0.67711,-0.350088 5.44229,4.306033 3.87247,2.064226 2.70433,1.53866 0.0375,-0.08011 -0.0744,-0.01458 -0.079,-0.04447 -0.003,-0.01953 0.55741,-0.300574 0.58182,-0.312435 0.78182,-0.367028 1.55794,-0.748118 2.30303,-1.185482 0.48361,-0.259247 0.92427,-0.59758 1.31613,-0.980435 0.23325,-0.221377 0.41505,-0.429731 0.4338,-0.760857 -0.003,-0.275074 -0.18368,-0.498099 -0.31591,-0.727083 -0.2069,-0.388834 -0.12314,-0.741145 0.0597,-1.117777 0.36689,-0.580519 0.85414,-1.071613 1.3037,-1.586955 0.34308,-0.377518 0.52642,-0.64852 0.40361,-1.166439 -0.12915,-0.302922 -0.35687,-0.551551 -0.57357,-0.795139 -0.12001,-0.07084 -0.188,-0.271013 -0.28314,-0.228434 0.0937,-0.216011 0.1837,-0.43621 0.285,-0.649504 0.18634,-0.273566 0.23901,-0.592683 0.26929,-0.914942 0.034,-0.527535 0.0247,-1.056587 0.0249,-1.584878 -0.009,-0.4005 -0.0193,-0.799034 0.15818,-1.165799 0.18512,-0.210193 0.35515,-0.438963 0.48655,-0.686859 0.11464,-0.266554 0.0855,-0.549489 0.0519,-0.828831 -0.0216,-0.08946 -0.007,-0.265321 -0.0795,-0.341447 -0.0328,-0.03426 -0.0618,0.06685 -0.0571,-0.02949 -0.0234,0.01286 0.0315,-0.121166 0.14844,-0.144185 0.18871,-0.170789 0.26213,-0.410792 0.36286,-0.636289 0.12309,-0.241596 0.17059,-0.504528 0.20025,-0.770964 0.041,-0.289843 -0.0442,-0.566957 -0.11588,-0.843851 -0.0175,-0.235429 -0.10505,-0.439203 -0.19788,-0.649666 -0.0878,0.03566 0.0313,-0.160126 0.0508,-0.203785 0,0 -3.48105,-1.950278 -3.48105,-1.950278 v 0 c -0.0607,0.156451 -0.13989,0.306102 -0.17814,0.469987 0.0632,0.214014 0.21376,0.379294 0.23056,0.602946 0.041,0.252516 0.15589,0.489807 0.1663,0.740939 -0.0122,0.224277 -0.0325,0.447927 -0.13431,0.652553 -0.0734,0.159893 -0.11898,0.34843 -0.26682,0.453845 -0.11875,0.113297 -0.25278,0.22034 -0.29473,0.386665 -0.0882,0.277471 -0.11527,0.283376 0.0861,0.495053 0.0183,0.208937 0.0689,0.4161 0.0642,0.625774 -0.13346,0.254313 -0.33293,0.465987 -0.49412,0.70257 -0.19854,0.427283 -0.25278,0.862449 -0.21517,1.333214 -1.9e-4,0.515226 -0.001,1.03088 -0.0267,1.545571 -0.022,0.277432 -0.0482,0.545076 -0.21063,0.781082 -0.1126,0.226142 -0.20067,0.464437 -0.32348,0.6858 -0.14558,0.344054 -0.0838,0.342659 0.0996,0.642139 0.24209,0.193786 0.42234,0.440621 0.64416,0.658981 0.30171,0.35024 0.0656,0.452673 -0.17276,0.783448 -0.45893,0.549804 -0.95536,1.07289 -1.3581,1.666197 -0.23008,0.449914 -0.4007,0.911096 -0.23831,1.414526 0.0662,0.203377 0.18134,0.482169 0.36374,0.598146 0.078,0.266774 -0.0756,0.251074 -0.25311,0.47312 -0.35985,0.364038 -0.78106,0.665946 -1.22263,0.922822 -0.74033,0.435965 -1.51814,0.800222 -2.30234,1.149863 -0.38759,0.190286 -0.91755,0.420394 -0.86491,0.939308 0.0718,0.221152 0.184,0.29531 0.38995,0.415473 1.43846,0.839292 2.77089,1.760201 4.29222,2.384972 0.8655,0.339104 1.73513,0.669626 2.62342,0.944976 z" />
    <circle
       id="path42"
       style="fill:#000000;stroke:#ffffff;stroke-width:0.264583"
       cx="88.95652"
       cy="28.304346"
       r="0.028391343" />
    <ellipse
       style="fill:#e9c6af;fill-opacity:1;stroke:#ffffff;stroke-width:0.264999;stroke-opacity:1"
       id="path88"
       cx="145.3524"
       cy="52.778027"
       rx="0.21281464"
       ry="1.2768878" />
    <circle
       style="fill:#e9c6af;fill-opacity:1;stroke:#ffffff;stroke-width:0.264999;stroke-opacity:1"
       id="path89"
       cx="120.7723"
       cy="-10.534325"
       r="0.10640732" />
  </g>
</svg>
